<?xml version="1.0" encoding="UTF-8"?><svg id="Layer_1" xmlns="http://www.w3.org/2000/svg" viewBox="0 0 1699.88 357.78"><defs><style>.cls-1{fill:#000f99;}.cls-2{fill:#231f20;}.cls-3{fill:gray;}</style></defs><path d="m356.27,268.79c-.63-.06-1.15-.2-1.53-.42-.37-.21-.65-.5-.84-.87-.21-.39-.35-.97-.43-1.71l-2.41-29.09c-.09-.73-.17-1.52-.25-2.39-.08-.84-.1-1.68-.06-2.51.03-.6.22-1.03.57-1.34.4-.34.87-.6,1.4-.77.55-.18,1.16-.29,1.79-.33.67-.04,1.24-.06,1.69-.06h1.02v-2.79h-.44c-1.11,0-2.25.04-3.4.13-1.12.08-2.24.13-3.33.13s-2.24-.04-3.33-.13c-1.11-.08-2.16-.13-3.14-.13h-.29l-.12.26-14.62,32.27-14.44-32.27-.12-.26h-.29c-.98,0-1.96.04-2.89.13-.91.08-1.86.12-2.81.12-1.29,0-2.59-.04-3.84-.13-1.27-.08-2.58-.13-3.9-.13h-.45v2.79h1.27c.68,0,1.33.08,1.95.24.6.15,1.14.4,1.6.73.45.32.82.76,1.1,1.3.28.55.43,1.24.43,2.05,0,1.25-.06,2.86-.19,4.8-.12,1.92-.32,4.05-.57,6.33l-1.9,17.66c-.12,1.13-.26,2.12-.41,2.96-.14.78-.38,1.44-.72,1.96-.34.5-.8.88-1.42,1.14-.64.27-1.58.43-2.79.47h-.87s-.45,0-.45,0v2.82l.48-.03c1.24-.08,2.49-.15,3.73-.19,1.28-.04,2.53-.06,3.73-.06,1.4,0,2.85.02,4.3.06,1.4.04,2.85.1,4.3.19l.47.03v-2.82h-1.21c-.84-.04-1.62-.09-2.31-.16-.6-.06-1.11-.22-1.51-.47-.34-.23-.61-.6-.81-1.07-.21-.49-.31-1.22-.31-2.17l2.04-26.29,14.74,33.57.12.27h2.1l.12-.26,15.55-34.28,1.67,25.24c.04.85.06,1.46.06,1.87v1.21c0,.58-.1,1.03-.31,1.34-.2.31-.5.53-.9.69-.45.17-.98.29-1.59.35-.67.06-1.42.12-2.23.16l-.42.02v2.79l.47-.02c1.79-.08,3.55-.15,5.22-.19,1.73-.04,3.49-.06,5.22-.06,1.48,0,3.03.02,4.59.06,1.51.04,3.03.1,4.52.19l.47.03v-2.8l-.43-.02c-.9-.04-1.71-.09-2.42-.16h0Z"/><path d="m408.92,260.27l-.43-.11-.11.43c-.45,1.76-1.02,3.16-1.68,4.14-.65.97-1.46,1.7-2.4,2.17-.96.48-2.12.78-3.46.91-1.38.13-3.03.19-4.91.19-1,0-1.97-.02-2.9-.06-.88-.04-1.67-.18-2.35-.42-.64-.23-1.13-.58-1.5-1.08-.36-.49-.55-1.2-.55-2.11v-14.33h7.17c1.02,0,1.82.13,2.38.4.53.26.93.62,1.2,1.09.29.5.49,1.11.61,1.82.12.74.23,1.6.31,2.57l.04.5.49-.1,1.9-.38.38-.08-.02-.38c-.13-2.4-.19-4.82-.19-7.21s.06-4.96.19-7.4l.02-.47h-2.77l-.04.4c-.16,1.62-.55,2.92-1.14,3.87-.54.87-1.7,1.31-3.43,1.31h-7.1v-15.73h8.37c1.58,0,2.86.18,3.81.54.91.35,1.62.84,2.09,1.44.48.62.82,1.36.99,2.2.19.89.32,1.84.4,2.83l.04.53.51-.14,1.9-.51.35-.09-.02-.36c-.09-1.4-.15-3.04-.19-4.87-.04-1.85-.02-3.46.06-4.78l.03-.47h-.47c-1.06,0-2.26,0-3.59.03-1.33.02-2.72.05-4.16.1-1.45.04-2.9.07-4.31.09-1.41.02-2.81.03-4.18.03s-2.72-.01-4.15-.03c-1.43-.02-2.87-.05-4.28-.09-1.4-.04-2.73-.07-4-.1-1.27-.02-2.4-.03-3.37-.03h-.45v2.79h1.33c.57,0,1.13.03,1.66.09.49.06.93.2,1.32.42.38.22.68.52.92.92.23.39.35.98.35,1.74v33.24c0,.72-.12,1.3-.35,1.72-.24.42-.54.73-.91.94-.39.22-.83.36-1.32.42-.53.06-1.09.09-1.66.09h-1.33v2.79h.45c.89,0,2.01-.01,3.37-.03,1.35-.02,2.79-.05,4.32-.09,1.54-.04,3.1-.07,4.65-.09,1.58-.02,3.09-.03,4.53-.03s2.94.01,4.5.03c1.53.02,3.08.05,4.62.09,1.52.04,2.97.07,4.35.09,1.38.02,2.57.03,3.59.03h.37l.07-.37c.29-1.66.62-3.35.98-5.03.36-1.66.75-3.35,1.17-5.03l.11-.43-.43-.11-1.78-.44h0Z"/><path d="m461.88,257.11c-.68,2.2-1.7,4.17-3.03,5.85-1.33,1.68-3,3.03-4.96,4.03-1.96,1-4.28,1.5-6.9,1.5-1.12,0-2.09-.05-2.89-.15-.75-.1-1.38-.31-1.87-.63-.47-.31-.81-.74-1.03-1.31-.23-.6-.35-1.43-.35-2.47v-33.98c.59-.07,1.18-.13,1.75-.18.69-.06,1.41-.09,2.12-.09,2.49,0,4.87.3,7.08.9,2.18.59,4.11,1.66,5.74,3.16,1.63,1.51,2.95,3.61,3.91,6.23.97,2.65,1.46,6.07,1.46,10.19,0,2.4-.35,4.73-1.03,6.94h0Zm3.89-24.43c-2.21-1.95-4.93-3.49-8.08-4.56-3.14-1.07-6.72-1.61-10.64-1.61-1.35,0-2.91.04-4.62.13-1.7.08-3.58.13-5.59.13s-3.98-.04-5.85-.13c-1.88-.08-3.33-.13-4.3-.13h-.45v2.79h1.33c.57,0,1.13.03,1.66.09.49.06.93.2,1.32.42.38.22.68.52.92.92.23.39.35.98.35,1.74v33.24c0,.72-.12,1.3-.35,1.72-.24.42-.54.73-.91.94-.39.22-.83.36-1.32.42-.53.06-1.09.09-1.66.09h-1.33v2.79h.45c.43,0,1.01-.01,1.76-.03.74-.02,1.58-.05,2.51-.1.93-.04,1.94-.07,3-.09,1.11-.02,2.18-.03,3.19-.03,2.13,0,4.26.02,6.33.06,2.06.04,3.81.11,5.18.19.52.03,1.03.05,1.54.05,2.7,0,5.31-.49,7.75-1.44,2.89-1.14,5.46-2.76,7.63-4.82,2.17-2.06,3.91-4.54,5.17-7.37,1.27-2.84,1.91-5.91,1.91-9.13s-.6-6.43-1.78-9.18c-1.18-2.75-2.91-5.14-5.13-7.1h0Z"/><path d="m500.98,226.64c-1.76.08-3.46.13-5.05.13s-3.21-.04-4.93-.13c-1.73-.08-3.24-.13-4.46-.13h-.45v2.79h1.33c.57,0,1.13.03,1.66.09.49.06.93.2,1.32.42.38.22.68.52.92.92.23.39.35.98.35,1.74v33.24c0,.72-.12,1.3-.35,1.72-.24.42-.54.73-.91.94-.39.22-.83.36-1.32.42-.53.06-1.09.09-1.66.09h-1.33v2.79h.45c1.25,0,2.74-.04,4.43-.13,1.72-.08,3.37-.13,4.89-.13s3.27.04,5.05.13c1.75.08,3.42.13,4.97.13h.44v-2.79h-1.33c-.53,0-1.08-.03-1.63-.09-.51-.06-.96-.2-1.35-.42-.38-.22-.67-.52-.91-.94-.23-.41-.35-.99-.35-1.72v-33.24c0-.76.12-1.35.35-1.74.24-.4.54-.7.92-.92.39-.22.84-.36,1.35-.42.55-.06,1.1-.09,1.63-.09h1.33v-2.79h-.44c-1.48,0-3.13.04-4.91.13h0Z"/><path d="m560.01,258.36l-.39-.06-.1.38c-.82,3.07-2.3,5.58-4.4,7.46-2.08,1.86-4.81,2.8-8.11,2.8-2.91,0-5.45-.6-7.55-1.78-2.11-1.19-3.89-2.78-5.28-4.72-1.4-1.96-2.45-4.2-3.1-6.67-.66-2.49-1-5.07-1-7.69s.34-5.29,1-7.58c.66-2.28,1.64-4.28,2.94-5.94,1.28-1.65,2.91-2.96,4.82-3.9,1.92-.94,4.16-1.41,6.66-1.41,2.3,0,4.26.29,5.81.86,1.55.57,2.85,1.35,3.88,2.32,1.03.97,1.88,2.13,2.5,3.45.64,1.34,1.18,2.78,1.59,4.27l.1.37.38-.05,1.9-.25.43-.06-.05-.44c-.21-1.75-.36-3.53-.44-5.26-.08-1.73-.1-3.5-.06-5.27v-.4s-.38-.06-.38-.06c-1.44-.21-2.74-.49-3.86-.84-1.14-.36-2.29-.71-3.43-1.05-1.15-.34-2.4-.64-3.72-.9-1.33-.26-2.96-.39-4.84-.39-3.29,0-6.48.52-9.47,1.55-3,1.03-5.68,2.53-7.98,4.46-2.3,1.93-4.15,4.35-5.51,7.19-1.35,2.84-2.04,6.1-2.04,9.71,0,4.02.64,7.58,1.91,10.61,1.27,3.03,3.05,5.58,5.32,7.58,2.26,2,4.97,3.51,8.06,4.5,3.08.98,6.45,1.48,10.03,1.48,2.93,0,5.68-.28,8.15-.83,2.46-.55,4.67-1.24,6.55-2.06l.24-.1.03-.26c.17-1.71.37-3.43.6-5.12.23-1.67.56-3.38.97-5.09l.12-.48-.49-.07-1.78-.25h0Z"/><path d="m589.72,251.57l5.35-16.27,5.29,16.27h-10.63Zm29.58,17.32c-1.89,0-3.13-.74-3.78-2.27-.42-.96-.82-2-1.19-3.11-.38-1.12-.76-2.23-1.14-3.33l-11.67-33.17c-.08-.25-.18-.52-.29-.8-.1-.27-.2-.53-.28-.77l-.02-.06-.03-.05c-.12-.18-.36-.39-.81-.39-.14,0-.33.04-.65.15l-.05.02-.05.03c-.59.38-1.43.84-2.52,1.37-1.1.54-2.16.98-3.15,1.31l-.25.08-.05.26c-.21,1.16-.55,2.47-1,3.87-.46,1.43-.91,2.75-1.33,3.92l-10.15,29.12c-.43,1.26-1.11,2.22-2.02,2.86-.91.64-1.95.97-3.07.97h-.83v2.83l.48-.04c1.12-.08,2.27-.15,3.41-.19,1.14-.04,2.29-.06,3.41-.06,1.25,0,2.53.02,3.82.06,1.29.04,2.57.11,3.82.19l.48.03v-2.82h-1.14c-.49,0-1.01-.03-1.57-.09-.54-.06-1.04-.16-1.47-.3-.4-.13-.72-.31-.96-.56-.21-.21-.31-.48-.31-.83,0-.54.14-1.19.42-1.94.3-.82.63-1.79.96-2.88l1.93-6.28h13.75l2.37,7.05c.34,1.01.63,1.92.88,2.72.24.76.36,1.33.36,1.71,0,.26-.09.45-.27.63-.23.21-.51.37-.85.47-.38.12-.77.2-1.17.23-.42.04-.82.06-1.2.06h-1.14v2.82l.47-.02c1.58-.08,3.19-.15,4.78-.19,1.59-.04,3.17-.06,4.71-.06s2.99.02,4.43.06c1.44.04,2.88.11,4.3.19l.47.03v-2.82h-.83Z"/><path d="m669.26,260h-.33l-.09.32c-.21.7-.46,1.46-.75,2.26-.28.76-.67,1.5-1.15,2.18-.55.75-1.34,1.45-2.34,2.07-1,.62-2.15,1.01-3.44,1.17-1.45.17-2.88.25-4.26.25s-2.75-.04-4.03-.13c-.92-.12-1.75-.4-2.45-.85-.63-.4-.94-1.14-.94-2.26v-32.73c0-.77.1-1.37.3-1.77.19-.38.44-.66.74-.83.32-.18.72-.29,1.18-.32.52-.04,1.07-.06,1.65-.06h2.03v-2.79h-.44c-1.61,0-3.24.04-4.84.13-1.59.08-3.21.13-4.8.13-1.68,0-3.35-.04-4.99-.13-1.65-.08-3.34-.13-5.03-.13h-.45v2.79h1.33c.57,0,1.13.03,1.66.09.49.06.95.2,1.36.42.4.22.7.52.94.91.23.39.35.98.35,1.74v32.6c0,.9-.12,1.62-.37,2.12-.24.49-.54.85-.93,1.08-.41.24-.87.41-1.36.48-.53.08-1.08.12-1.64.12h-1.33v2.79h.45c2.82,0,5.64-.04,8.39-.13,2.81-.08,5.62-.13,8.36-.13s5.55.04,8.36.13c2.75.08,5.57.13,8.39.13h.36l.07-.35c.38-1.82.79-3.63,1.2-5.38.42-1.77.81-3.59,1.15-5.41l.1-.53h-2.38Z"/><path d="m734,248.24c-1.44-1.12-3.01-2.07-4.69-2.84-1.63-.76-3.17-1.55-4.56-2.36-1.37-.8-2.51-1.74-3.4-2.79-.86-1.01-1.29-2.34-1.29-3.96,0-2.41.63-4.29,1.87-5.59,1.24-1.3,3.08-1.96,5.48-1.96,1.02,0,1.95.21,2.75.62.81.41,1.52.99,2.11,1.7.6.72,1.09,1.55,1.45,2.48.37.94.61,1.9.73,2.87l.06.47.46-.08,1.78-.32.42-.07-.06-.42c-.21-1.52-.37-3.04-.47-4.54-.1-1.5-.16-3-.16-4.47v-.38l-.37-.06c-.51-.08-1.18-.18-2.05-.29-.88-.11-1.77-.2-2.65-.29-.91-.08-1.76-.17-2.56-.25-.84-.09-1.48-.13-1.95-.13-2.07,0-4.02.31-5.79.91-1.79.61-3.33,1.51-4.6,2.66-1.27,1.16-2.28,2.6-3,4.28-.72,1.68-1.08,3.6-1.08,5.73,0,2.6.49,4.77,1.46,6.44.95,1.65,2.15,3.04,3.57,4.16,1.4,1.1,2.93,2.05,4.55,2.84,1.59.78,3.08,1.59,4.43,2.42,1.33.82,2.45,1.8,3.34,2.91.86,1.08,1.3,2.51,1.3,4.26,0,2.16-.69,3.8-2.12,4.99-1.43,1.19-3.19,1.8-5.23,1.8-1.45,0-2.73-.26-3.8-.78-1.08-.52-2.02-1.22-2.78-2.08-.76-.86-1.38-1.89-1.82-3.07-.45-1.19-.79-2.46-.99-3.78l-.07-.47-.46.1-1.78.38-.39.08.04.4c.16,1.54.34,3.12.54,4.83.18,1.51.36,3.09.54,4.82l.03.24.21.11c1.58.81,3.24,1.5,4.95,2.06,1.73.56,3.53.85,5.34.85,2.06,0,4.07-.29,5.97-.88,1.91-.58,3.6-1.46,5.03-2.61,1.44-1.15,2.61-2.6,3.48-4.3.87-1.71,1.32-3.72,1.32-5.98,0-2.6-.49-4.77-1.46-6.44-.95-1.65-2.18-3.06-3.63-4.19h0Z"/><path d="m793.46,258.36l-.39-.06-.1.38c-.82,3.07-2.3,5.58-4.4,7.46-2.09,1.86-4.81,2.8-8.11,2.8-2.91,0-5.45-.6-7.55-1.78-2.11-1.19-3.89-2.78-5.28-4.72-1.4-1.96-2.45-4.2-3.1-6.67-.66-2.49-1-5.07-1-7.69s.34-5.29,1-7.58c.66-2.28,1.64-4.28,2.94-5.94,1.28-1.65,2.91-2.96,4.82-3.9,1.92-.94,4.16-1.41,6.66-1.41,2.3,0,4.26.29,5.81.86,1.55.57,2.85,1.35,3.88,2.32,1.03.97,1.88,2.13,2.5,3.45.64,1.34,1.18,2.78,1.59,4.27l.1.37.39-.05,1.9-.25.44-.06-.05-.44c-.21-1.75-.35-3.53-.44-5.26-.08-1.73-.11-3.5-.07-5.27l.02-.4-.4-.06c-1.44-.21-2.74-.49-3.86-.84-1.14-.36-2.3-.71-3.44-1.05-1.15-.34-2.4-.64-3.72-.9-1.33-.26-2.96-.39-4.84-.39-3.29,0-6.47.52-9.47,1.55-3,1.03-5.68,2.53-7.98,4.46-2.3,1.93-4.15,4.35-5.51,7.19-1.35,2.84-2.04,6.1-2.04,9.71,0,4.02.64,7.58,1.91,10.61,1.27,3.03,3.05,5.58,5.32,7.58,2.26,2,4.97,3.51,8.06,4.5,3.08.98,6.45,1.48,10.03,1.48,2.93,0,5.68-.28,8.15-.83,2.46-.55,4.67-1.24,6.55-2.06l.24-.1.03-.26c.16-1.71.37-3.43.6-5.12.23-1.67.56-3.38.98-5.09l.11-.48-.49-.07-1.78-.25h0Z"/><path d="m857.88,226.64c-1.74.08-3.43.13-5.02.13-1.72,0-3.53-.04-5.37-.13-1.86-.08-3.51-.13-4.91-.13h-.44v2.79h1.65c.57,0,1.14.03,1.69.09.52.06,1,.19,1.45.4.41.2.73.49.98.91.25.41.38,1.01.38,1.77v13.45h-22.13v-13.45c0-.76.12-1.35.37-1.77.25-.41.58-.71.99-.91.44-.21.93-.34,1.48-.4.57-.06,1.13-.09,1.66-.09h1.65v-2.79h-.44c-1.4,0-3.05.04-4.91.13-1.84.08-3.66.13-5.37.13-1.59,0-3.28-.04-5.02-.13-1.75-.08-3.29-.13-4.55-.13h-.45v2.79h1.34c.57,0,1.13.03,1.66.09.48.06.93.2,1.32.42.38.22.68.52.92.92.23.39.35.98.35,1.74v33.24c0,.72-.12,1.3-.36,1.72-.24.42-.54.73-.91.94-.38.22-.83.36-1.32.42-.54.06-1.09.09-1.66.09h-1.34v2.79h.45c1.29,0,2.82-.04,4.55-.13,1.76-.08,3.45-.13,5.02-.13,1.7,0,3.51.04,5.37.13,1.84.08,3.48.13,4.91.13h.44v-2.79h-1.65c-.53,0-1.09-.03-1.66-.09-.54-.06-1.04-.19-1.48-.4-.41-.2-.73-.49-.99-.91-.25-.41-.37-1.01-.37-1.77v-15.35h22.13v15.35c0,.76-.13,1.35-.38,1.77-.25.42-.57.71-.98.91-.44.21-.93.35-1.45.4-.55.06-1.13.09-1.69.09h-1.65v2.79h.44c1.42,0,3.07-.04,4.91-.13,1.87-.08,3.67-.13,5.37-.13,1.57,0,3.26.04,5.02.13,1.73.08,3.26.13,4.55.13h.44v-2.79h-1.33c-.53,0-1.07-.03-1.63-.09-.51-.06-.96-.2-1.35-.42-.38-.22-.68-.52-.92-.94-.23-.42-.35-.99-.35-1.72v-33.24c0-.76.11-1.35.35-1.74.24-.4.54-.7.92-.92.38-.22.84-.36,1.35-.42.56-.06,1.1-.09,1.63-.09h1.33v-2.79h-.44c-1.27,0-2.8.04-4.55.13h0Z"/><path d="m914.69,256.26c-.35,2.31-1.04,4.44-2.04,6.33-1,1.87-2.42,3.42-4.23,4.59-1.8,1.17-4.22,1.77-7.21,1.77-2.48,0-4.67-.6-6.51-1.8-1.86-1.2-3.43-2.83-4.68-4.84-1.26-2.02-2.22-4.37-2.86-6.98-.64-2.61-.97-5.35-.97-8.14,0-2.08.24-4.21.69-6.34.45-2.12,1.22-4.07,2.3-5.79,1.05-1.71,2.49-3.12,4.26-4.2,1.76-1.07,4.03-1.62,6.72-1.62,2.52,0,4.75.62,6.61,1.83,1.88,1.23,3.47,2.83,4.72,4.75,1.26,1.94,2.2,4.11,2.82,6.47.63,2.36.94,4.71.94,6.99s-.18,4.64-.54,6.97h0Zm3.08-24.72c-2.21-1.91-4.85-3.4-7.85-4.43-2.99-1.03-6.25-1.55-9.66-1.55s-6.51.62-9.4,1.84c-2.9,1.22-5.44,2.92-7.57,5.04-2.12,2.13-3.82,4.67-5.04,7.56-1.22,2.9-1.84,6.06-1.84,9.4s.62,6.67,1.84,9.5c1.22,2.83,2.95,5.3,5.11,7.32,2.17,2.02,4.76,3.61,7.69,4.72,2.94,1.11,6.14,1.68,9.52,1.68s6.65-.6,9.61-1.78c2.96-1.18,5.57-2.88,7.76-5.04,2.19-2.17,3.93-4.8,5.17-7.82,1.24-3.02,1.87-6.42,1.87-10.1,0-3.43-.65-6.57-1.94-9.32-1.29-2.75-3.06-5.11-5.28-7.03h0Z"/><path d="m975.11,256.26c-.35,2.31-1.04,4.44-2.05,6.33-.99,1.87-2.42,3.42-4.22,4.59-1.8,1.17-4.22,1.77-7.21,1.77-2.48,0-4.67-.6-6.51-1.8-1.86-1.2-3.44-2.83-4.68-4.84-1.26-2.02-2.22-4.37-2.86-6.98-.64-2.61-.97-5.35-.97-8.14,0-2.08.23-4.21.69-6.34.45-2.12,1.22-4.07,2.29-5.79,1.06-1.71,2.49-3.12,4.26-4.2,1.76-1.07,4.02-1.62,6.71-1.62,2.53,0,4.75.62,6.6,1.83,1.88,1.23,3.47,2.83,4.72,4.75,1.26,1.94,2.21,4.11,2.83,6.47.62,2.36.93,4.71.93,6.99s-.18,4.64-.53,6.97h0Zm3.08-24.72c-2.21-1.91-4.86-3.4-7.85-4.43-3-1.03-6.25-1.55-9.66-1.55s-6.51.62-9.41,1.84c-2.89,1.22-5.44,2.92-7.56,5.04-2.13,2.13-3.82,4.67-5.04,7.56-1.22,2.9-1.84,6.06-1.84,9.4s.62,6.67,1.84,9.5c1.22,2.83,2.95,5.3,5.12,7.32,2.17,2.02,4.75,3.61,7.69,4.72,2.93,1.11,6.14,1.68,9.51,1.68s6.66-.6,9.61-1.78c2.96-1.18,5.57-2.88,7.76-5.04,2.19-2.17,3.93-4.8,5.17-7.82,1.25-3.02,1.88-6.42,1.88-10.1,0-3.43-.66-6.57-1.94-9.32-1.29-2.75-3.07-5.11-5.28-7.03h0Z"/><path d="m1032.77,260h-2.17l-.1.32c-.2.7-.46,1.46-.75,2.26-.28.76-.67,1.5-1.15,2.18-.55.75-1.35,1.45-2.35,2.07-.99.62-2.15,1.01-3.44,1.17-1.44.17-2.88.25-4.26.25s-2.75-.04-4.03-.13c-.91-.12-1.75-.4-2.45-.85-.63-.4-.93-1.14-.93-2.26v-32.73c0-.77.1-1.37.3-1.77.19-.38.44-.66.74-.83.32-.18.72-.29,1.18-.32.52-.04,1.07-.06,1.65-.06h2.03v-2.79h-.44c-1.61,0-3.24.04-4.84.13-1.59.08-3.21.13-4.79.13-1.68,0-3.36-.04-4.99-.13-1.65-.08-3.34-.13-5.04-.13h-.44v2.79h1.33c.57,0,1.13.03,1.66.09.49.06.95.2,1.36.42.4.22.7.52.94.91.23.39.34.98.34,1.74v32.6c0,.9-.12,1.62-.37,2.12-.24.5-.54.85-.93,1.08-.41.24-.87.41-1.36.48-.53.08-1.08.12-1.65.12h-1.33v2.79h.44c2.82,0,5.64-.04,8.39-.13,2.81-.08,5.62-.13,8.36-.13s5.55.04,8.36.13c2.75.08,5.57.13,8.39.13h.36l.08-.35c.38-1.82.79-3.63,1.2-5.38.42-1.76.8-3.59,1.15-5.41l.1-.53h-.54Z"/><path d="m556.28,159.1c-1.91.64-4.02,1.29-6.34,1.98-2.32.68-4.49,1.57-6.54,2.66-2.04,1.09-3.74,2.43-5.11,4.02-1.36,1.59-2.04,3.57-2.04,5.93,0,5.9,2.77,8.85,8.31,8.85,1.54,0,2.95-.27,4.22-.82,1.27-.54,2.4-1.2,3.41-1.98,1-.77,1.84-1.57,2.52-2.38.68-.82,1.2-1.5,1.57-2.05v-16.21h0Zm0-12.26c0-4-1.02-6.83-3.07-8.51-2.04-1.68-4.61-2.52-7.7-2.52-4,0-6.68.66-8.04,1.98-1.36,1.32-2.18,3.88-2.45,7.7-.09.91-.54,1.7-1.36,2.38-.82.68-1.75,1.25-2.79,1.7-1.04.46-2.09.8-3.13,1.02-1.05.23-1.84.34-2.38.34-1.73,0-2.59-1.04-2.59-3.13,0-2.63.72-4.93,2.18-6.88,1.45-1.95,3.22-3.48,5.31-4.56,2.27-1.18,4.63-2.41,7.08-3.68,2.45-1.27,5-2.68,7.63-4.22,1.54-.91,2.95-1.45,4.22-1.64,1.27-.18,2.59-.27,3.95-.27,5.99,0,10.56,1.52,13.69,4.56,3.13,3.04,4.7,7.56,4.7,13.55v27.79c0,2.91.23,5.32.68,7.22.45,1.91,1.64,2.86,3.54,2.86.64,0,1.32-.18,2.05-.55.73-.36,1.31-.77,1.77-1.22l1.77,2.45c-2.09,2.54-4.18,4.61-6.27,6.2-2.09,1.59-4.77,2.38-8.04,2.38s-5.75-1-7.43-3c-1.68-2-2.65-4.58-2.93-7.76-3,2.91-6.13,5.43-9.4,7.56-3.27,2.13-7.08,3.2-11.44,3.2-4.09,0-7.58-1.2-10.49-3.61-2.91-2.4-4.36-5.88-4.36-10.42,0-2.63.5-4.86,1.5-6.68,1-1.81,2.36-3.38,4.09-4.7,1.72-1.31,3.68-2.43,5.86-3.34,2.18-.91,4.5-1.82,6.95-2.72l16.89-5.86v-7.63h0Z"/><path d="m625.45,144.94c-.36-3.81-1.41-7.01-3.13-9.61-1.73-2.59-4.77-3.88-9.13-3.88-2.36,0-4.5.71-6.4,2.11-1.91,1.41-2.86,3.43-2.86,6.06,0,2.45.7,4.47,2.11,6.06,1.41,1.59,3.16,3,5.24,4.22,2.09,1.23,4.34,2.41,6.75,3.54,2.4,1.14,4.65,2.5,6.74,4.09,2.09,1.59,3.84,3.5,5.24,5.72,1.41,2.23,2.11,5.07,2.11,8.51,0,3.64-.68,6.75-2.04,9.33-1.36,2.59-3.13,4.66-5.31,6.2-2.18,1.54-4.65,2.68-7.42,3.41-2.77.72-5.56,1.09-8.38,1.09-3.27,0-6.18-.39-8.72-1.16-2.54-.77-5-1.57-7.36-2.38l-1.23-15.12,3.81-.82c.18,1.91.61,3.72,1.29,5.45.68,1.73,1.57,3.27,2.66,4.63,1.09,1.36,2.43,2.45,4.02,3.27,1.59.82,3.38,1.23,5.38,1.23,2.63,0,5-.75,7.08-2.25,2.09-1.5,3.13-3.75,3.13-6.75,0-2.18-.68-4-2.04-5.45-1.36-1.45-3.04-2.77-5.04-3.95-2-1.18-4.2-2.36-6.61-3.54-2.41-1.18-4.61-2.59-6.61-4.22-2-1.64-3.68-3.63-5.04-6-1.36-2.36-2.05-5.26-2.05-8.72,0-3,.54-5.7,1.64-8.11,1.09-2.4,2.61-4.45,4.56-6.13,1.95-1.68,4.27-2.98,6.95-3.88,2.68-.9,5.56-1.36,8.65-1.36s5.88.3,8.38.88c2.5.59,5.06,1.38,7.7,2.38-.18,2.45-.32,4.88-.41,7.29-.09,2.41-.05,4.79.14,7.15l-3.81.68h0Z"/><path d="m678.33,144.94c-.36-3.81-1.41-7.01-3.13-9.61-1.73-2.59-4.77-3.88-9.13-3.88-2.36,0-4.5.71-6.4,2.11-1.91,1.41-2.86,3.43-2.86,6.06,0,2.45.7,4.47,2.11,6.06,1.41,1.59,3.16,3,5.25,4.22,2.09,1.23,4.34,2.41,6.75,3.54,2.4,1.14,4.65,2.5,6.74,4.09,2.09,1.59,3.84,3.5,5.24,5.72,1.41,2.23,2.11,5.07,2.11,8.51,0,3.64-.68,6.75-2.04,9.33-1.36,2.59-3.13,4.66-5.31,6.2-2.18,1.54-4.65,2.68-7.42,3.41-2.77.72-5.56,1.09-8.38,1.09-3.27,0-6.18-.39-8.72-1.16-2.54-.77-5-1.57-7.36-2.38l-1.23-15.12,3.82-.82c.18,1.91.61,3.72,1.29,5.45.68,1.73,1.57,3.27,2.66,4.63,1.09,1.36,2.43,2.45,4.02,3.27,1.59.82,3.38,1.23,5.38,1.23,2.63,0,5-.75,7.08-2.25,2.09-1.5,3.13-3.75,3.13-6.75,0-2.18-.68-4-2.04-5.45-1.36-1.45-3.04-2.77-5.04-3.95-2-1.18-4.2-2.36-6.6-3.54-2.41-1.18-4.61-2.59-6.61-4.22-2-1.64-3.68-3.63-5.04-6-1.36-2.36-2.05-5.26-2.05-8.72,0-3,.55-5.7,1.64-8.11,1.09-2.4,2.61-4.45,4.56-6.13,1.95-1.68,4.27-2.98,6.95-3.88,2.68-.9,5.56-1.36,8.65-1.36s5.88.3,8.38.88c2.5.59,5.06,1.38,7.7,2.38-.18,2.45-.32,4.88-.41,7.29-.09,2.41-.05,4.79.14,7.15l-3.82.68h0Z"/><path d="m801.26,122.73c-.9-3.27-2.07-6.38-3.47-9.33-1.41-2.95-3.27-5.52-5.58-7.7-2.32-2.18-5.21-3.9-8.65-5.18-3.45-1.27-7.72-1.91-12.81-1.91-5.54,0-10.45,1.04-14.71,3.13-4.27,2.09-7.83,4.97-10.69,8.65-2.86,3.68-5.02,8.04-6.47,13.08-1.45,5.04-2.18,10.56-2.18,16.55s.72,11.3,2.18,16.76c1.45,5.45,3.72,10.33,6.81,14.64,3.09,4.31,6.97,7.79,11.65,10.42,4.68,2.64,10.24,3.95,16.69,3.95,7.36,0,13.37-2.09,18.05-6.27,4.68-4.18,7.92-9.67,9.74-16.48l3.81.55c-.91,3.72-1.61,7.4-2.11,11.03-.51,3.64-.93,7.31-1.29,11.04-4,1.73-8.63,3.18-13.9,4.36-5.26,1.18-11.03,1.77-17.3,1.77-7.63,0-14.71-1.04-21.25-3.13-6.54-2.09-12.19-5.24-16.96-9.47-4.77-4.22-8.49-9.54-11.17-15.94-2.68-6.4-4.02-13.87-4.02-22.41,0-7.63,1.43-14.44,4.29-20.43,2.86-5.99,6.72-11.03,11.58-15.12,4.86-4.09,10.47-7.22,16.83-9.4,6.36-2.18,13.03-3.27,20.03-3.27,3.99,0,7.4.27,10.22.81,2.81.55,5.45,1.18,7.9,1.91,2.46.73,4.91,1.48,7.35,2.25,2.46.77,5.27,1.38,8.45,1.84-.09,3.81-.05,7.61.14,11.37.18,3.77.5,7.56.95,11.37l-4.09.55h0Z"/><path d="m838.83,182.4c0,1.64.66,2.59,1.98,2.86,1.32.27,2.83.41,4.56.41h2.04v4.09c-2.64-.18-5.23-.32-7.77-.41-2.54-.09-5.13-.14-7.76-.14-2.82,0-5.59.05-8.31.14-2.72.09-5.4.23-8.04.41v-4.09c2.17,0,4.06-.18,5.65-.55,1.59-.36,2.39-1.59,2.39-3.68v-77.24c0-1.54-.21-2.68-.61-3.41-.41-.73-1.39-1.41-2.93-2.04l-4.49-1.77v-3.27c3.08-.73,6.65-1.86,10.69-3.41,4.04-1.54,7.74-3.09,11.11-4.63l1.49,1.22v49.59c1.55-1,3.12-2.09,4.7-3.27,1.59-1.18,3.28-2.27,5.04-3.27,1.77-1,3.61-1.82,5.52-2.45,1.91-.63,3.9-.95,5.99-.95,4.91,0,8.95,1.32,12.12,3.95,3.18,2.64,4.78,7.18,4.78,13.62v37.74c0,1.91.7,3.02,2.1,3.34,1.41.32,2.93.48,4.57.48h1.64v4.09c-2.64-.18-5.2-.32-7.71-.41-2.5-.09-5.06-.14-7.69-.14s-5.43.05-8.11.14c-2.68.09-5.38.23-8.11.41v-4.09h1.36c.73,0,1.47-.02,2.24-.07.77-.05,1.48-.18,2.11-.41.64-.23,1.18-.56,1.64-1.02.45-.46.68-1.13.68-2.04v-34.06c0-4.17-.96-7.13-2.86-8.85-1.91-1.73-4.4-2.59-7.49-2.59-2.27,0-4.54.52-6.81,1.57-2.27,1.04-4.18,2.07-5.72,3.06v41.14h0Z"/><path d="m928.79,159.1c-1.91.64-4.02,1.29-6.34,1.98-2.31.68-4.49,1.57-6.54,2.66-2.04,1.09-3.74,2.43-5.11,4.02-1.35,1.59-2.04,3.57-2.04,5.93,0,5.9,2.76,8.85,8.3,8.85,1.55,0,2.95-.27,4.22-.82,1.27-.54,2.4-1.2,3.41-1.98.99-.77,1.84-1.57,2.53-2.38.68-.82,1.19-1.5,1.56-2.05v-16.21h0Zm0-12.26c0-4-1.02-6.83-3.06-8.51-2.04-1.68-4.62-2.52-7.7-2.52-4,0-6.67.66-8.04,1.98-1.36,1.32-2.18,3.88-2.46,7.7-.08.91-.54,1.7-1.36,2.38-.81.68-1.75,1.25-2.79,1.7-1.04.46-2.09.8-3.13,1.02-1.05.23-1.84.34-2.38.34-1.73,0-2.59-1.04-2.59-3.13,0-2.63.73-4.93,2.18-6.88,1.45-1.95,3.22-3.48,5.31-4.56,2.27-1.18,4.63-2.41,7.09-3.68,2.45-1.27,4.99-2.68,7.63-4.22,1.54-.91,2.95-1.45,4.22-1.64,1.27-.18,2.59-.27,3.95-.27,5.99,0,10.55,1.52,13.69,4.56,3.13,3.04,4.7,7.56,4.7,13.55v27.79c0,2.91.22,5.32.68,7.22.45,1.91,1.63,2.86,3.54,2.86.64,0,1.32-.18,2.04-.55.73-.36,1.31-.77,1.77-1.22l1.77,2.45c-2.09,2.54-4.18,4.61-6.27,6.2-2.08,1.59-4.76,2.38-8.04,2.38s-5.74-1-7.42-3c-1.68-2-2.66-4.58-2.92-7.76-3,2.91-6.13,5.43-9.41,7.56-3.27,2.13-7.08,3.2-11.44,3.2-4.09,0-7.58-1.2-10.49-3.61-2.91-2.4-4.36-5.88-4.36-10.42,0-2.63.5-4.86,1.5-6.68,1-1.81,2.36-3.38,4.09-4.7,1.72-1.31,3.67-2.43,5.85-3.34,2.18-.91,4.5-1.82,6.95-2.72l16.89-5.86v-7.63h0Z"/><path d="m961.64,185.67h.96c1.99,0,3.67-.16,5.04-.48,1.36-.32,2.04-1.52,2.04-3.61v-38.55c0-1.09-.16-1.89-.47-2.38-.32-.5-1.25-.97-2.79-1.43-.82-.18-1.61-.41-2.38-.68-.77-.27-1.57-.5-2.39-.68v-3.27c2.09-.55,4.22-1.18,6.4-1.91,2.19-.73,4.18-1.41,6-2.05,1.54-.54,3.11-1.2,4.7-1.98,1.58-.77,3.15-1.47,4.7-2.11l1.5,1.22v8.72c1.54-1,3.11-2.09,4.7-3.27,1.58-1.18,3.27-2.27,5.04-3.27,1.77-1,3.6-1.82,5.51-2.45,1.91-.63,3.91-.95,6-.95,4.91,0,8.94,1.32,12.12,3.95,3.18,2.64,4.77,7.18,4.77,13.62v37.74c0,1.91.7,3.02,2.11,3.34,1.41.32,2.93.48,4.56.48h1.64v4.09c-2.64-.18-5.2-.32-7.7-.41-2.5-.09-5.07-.14-7.7-.14s-5.43.05-8.11.14c-2.68.09-5.38.23-8.11.41v-4.09h1.36c.73,0,1.48-.02,2.25-.07.77-.05,1.48-.18,2.11-.41.64-.23,1.18-.56,1.63-1.02.45-.46.68-1.13.68-2.04v-34.06c0-4.17-.95-7.13-2.86-8.85-1.91-1.73-4.4-2.59-7.49-2.59-2.27,0-4.55.52-6.81,1.57-2.27,1.04-4.19,2.07-5.72,3.06v41.14c0,1.64.66,2.59,1.97,2.86,1.32.27,2.83.41,4.56.41h2.04v4.09c-2.63-.18-5.22-.32-7.76-.41-2.55-.09-5.14-.14-7.77-.14-2.82,0-5.59.05-8.31.14-2.72.09-5.4.23-8.04.41v-4.09h0Z"/><path d="m505.14,185.47c-1.5-.14-2.73-.48-3.68-1.02-.95-.54-1.68-1.3-2.18-2.25-.5-.95-.84-2.3-1.02-4.02l-5.17-62.5c-.18-1.54-.37-3.25-.55-5.11-.18-1.87-.23-3.71-.14-5.53.09-1.55.61-2.73,1.57-3.55.96-.82,2.07-1.43,3.34-1.84,1.27-.41,2.63-.66,4.09-.75,1.45-.09,2.68-.14,3.68-.14h1.23v-4.09c-2.36,0-4.77.09-7.22.27-2.45.18-4.86.27-7.22.27s-4.86-.09-7.22-.27c-2.36-.18-4.59-.27-6.68-.27l-32.29,71.25-31.88-71.25c-7.48,0-15.37.96-28.88.96-15.35,0-23.42-.96-30.93-.96v4.09h2.72c1.18,0,2.34.07,3.48.2,1.13.14,2.18.5,3.13,1.09.95.59,1.72,1.57,2.32,2.93.59,1.36.88,3.27.88,5.72v46.45c0,9.18-2.07,16.44-6.2,21.8-4.13,5.36-10.7,8.04-19.69,8.04-4.91,0-8.99-.7-12.26-2.11-3.27-1.41-5.93-3.41-7.97-6-2.04-2.59-3.5-5.67-4.36-9.26-.86-3.58-1.29-7.56-1.29-11.92v-47c0-2.45.32-4.36.95-5.72.64-1.36,1.45-2.33,2.45-2.93,1-.59,2.16-.95,3.47-1.09,1.32-.14,2.66-.2,4.02-.2h1.64v-4.09c-2.72,0-5.79.09-9.2.27-3.41.18-7.15.27-11.24.27-4.36,0-8.34-.09-11.92-.27-3.59-.18-6.84-.27-9.74-.27v4.09h1.64c1.36,0,2.68.07,3.95.2,1.27.14,2.38.5,3.34,1.09.95.59,1.73,1.57,2.31,2.93.59,1.36.89,3.27.89,5.72v49.18c0,12.17,3.52,20.87,10.56,26.09,7.04,5.23,17.1,7.83,30.18,7.83,5.09,0,9.85-.61,14.31-1.84,4.45-1.22,8.33-3.36,11.65-6.4,3.31-3.04,5.92-7.1,7.83-12.19,1.91-5.09,2.86-11.49,2.86-19.21v-43.46c0-2.45.27-4.36.82-5.72.55-1.36,1.25-2.33,2.11-2.93.63-.43,1.32-.74,2.05-.93.04-.01.09-.02.14-.03.22-.05.44-.1.67-.13.07,0,.13-.03.2-.04,2.38-.39,6.5-.55,9.98.26.13.04.28.08.46.13,1.04.27,2,.65,2.87,1.15.03.02.07.04.1.06.27.16.53.32.78.5,1.09.77,1.97,1.82,2.65,3.14.68,1.32,1.02,2.93,1.02,4.85,0,2.73-.13,6.19-.41,10.37-.27,4.18-.68,8.73-1.23,13.64l-4.09,37.93c-.27,2.46-.57,4.6-.88,6.42-.32,1.82-.88,3.34-1.7,4.57-.82,1.23-1.98,2.16-3.48,2.8-1.5.64-3.61,1-6.33,1.09h-1.91v4.09c2.63-.18,5.32-.32,8.04-.41,2.72-.09,5.4-.14,8.04-.14,3.09,0,6.17.05,9.26.14,3.09.09,6.18.23,9.26.41v-4.09h-1.63c-1.91-.09-3.59-.2-5.04-.34-1.45-.14-2.68-.52-3.68-1.16-.91-.64-1.61-1.54-2.11-2.73-.5-1.18-.75-2.86-.75-5.04l4.63-59.81h.27l32.97,75.06h3.27l34.74-76.56h.27l3.82,57.49c.09,1.82.14,3.18.14,4.09v2.59c0,1.45-.27,2.59-.82,3.41-.55.82-1.34,1.43-2.38,1.84-1.04.41-2.27.68-3.68.82-1.41.14-3.02.25-4.84.34v4.09c3.82-.18,7.56-.32,11.24-.41,3.68-.09,7.43-.14,11.24-.14,3.27,0,6.56.05,9.88.14,3.31.09,6.56.23,9.74.41v-4.09c-2-.09-3.75-.2-5.24-.34h0Z"/><path d="m107.8,243.7c-11.61,9.15-41.71,28.93-59.34,19.23-20.89-11.48-1.77-37.59,8.96-50.89,25.1-31.1,67-66.6,67-81.11,0-6.98-8.29-9-16.86-9-17.96,0-67.98,21.61-67.98,53.57,0,11.71,7.46,18.23,21.55,21.38-10.66,5.85-25.75,2.35-31.71-7.74v83.47h78.36v-28.93h0Z"/><path class="cls-1" d="m238.68,85.92h-72.54l-30.67,35.2,2.25,1.27s.07.04.1.06c5.62,3.63,7.89,8.47,7.89,12.54,0,3.64-1.86,8.77-5.88,14.31-8.74,12.06-62.82,72.39-72.55,85.12-18.4,24.09,9.65,29.82,51.33-7.91,29.27-26.51,83.94-97.55,83.94-97.55h24.66s-41.33,56.39-57.73,85.76c-10.19,18.25-20.28,46.04,1.38,45.75,14.15-.19,28.79-19.58,29.56-42.21,4.7,3.38,6.83,8.33,6.91,13.28.23,14.89-15.79,35.46-36.35,36-5.71.15-10.66-1.55-10.66-1.55v6.62h78.36V85.92h0Z"/><path d="m101.98,85.92H29.43v84.16c8.01-18.85,35.15-53.09,85.04-53.09,6.79,0,12.25.9,16.61,2.35l-29.12-33.42h0Z"/><path d="m135.45,121.13c.32.16.66.32.97.49l-.7-.8-.27.31h0Z"/><rect class="cls-2" x="1114.62" y="34.38" width="2.04" height="289.03"/><path class="cls-1" d="m1238.14,255.62c.11.65-.55,1.86-1.31,3.06-4.37,6.12-12.34,15.4-23.15,15.4-5.25,0-8.74-2.62-8.74-7.42,0-2.84,1.2-6.77,2.51-10.92l7.97-25.88c-.11-.44-.33-.77-.43-.88h-6.55c-.43-.22-.54-.76-.54-1.53,0-1.64.43-4.8,1.64-5.13h7.64c.22-.11.43-.44.76-.77l3.82-12.88c1.42-1.97,9.5-2.18,13.22-2.18,1.09,0,2.84.11,3.49.98l-4.26,14.09c.11.33.22.65.44.77h11.36c.43.22.54.76.54,1.53,0,1.75-.43,4.8-1.52,5.13h-12.56c-.22.11-.43.44-.76.77l-8.08,26.43c-.43,1.64-1.31,4.15-1.31,5.57,0,1.09.55,2.18,1.64,2.18,3.49,0,9.39-7.42,11.46-10.59,1.1.33,2.63,1.2,2.73,2.29Z"/><path class="cls-1" d="m1265.38,274.08c-12.45,0-22.05-6.22-22.05-19.87,0-16.71,13.65-33.85,30.79-33.85,12.45,0,22.05,6.22,22.05,19.87,0,16.71-13.65,33.85-30.79,33.85Zm10.27-47.93c-9.29,0-16.49,27.63-16.49,35.16,0,3.28.65,6.99,4.7,6.99,9.28,0,16.48-27.63,16.48-35.16,0-3.28-.65-6.99-4.69-6.99Z"/><path class="cls-1" d="m1316.22,302.47c-15.07,0-24.35-6.44-24.35-13.1,0-7.21,8.18-10.38,14.74-13.32l.11-.33c-3.82-1.86-6.11-4.04-6.11-6.55,0-4.15,4.7-9.5,10.38-13.21-5.13-2.29-8.63-6.44-8.63-13.32,0-12.77,11.46-22.28,23.69-22.28,5.25,0,8.19.98,11.79,2.51,1.2.33,2.41.54,4.26.54,2.84,0,4.69-.98,8.63-.98,2.07,0,3.05,1.2,3.05,3.72,0,2.29-1.2,3.82-3.05,3.82-2.18,0-3.82-1.53-6.44-1.53h-.88c1.09,1.86,1.74,4.26,1.74,7.1,0,12.66-11.57,22.39-23.69,22.39-1.97,0-3.72-.11-5.25-.44-1.09-.33-1.53.11-1.86.77-.54.65-.87,1.53-.87,2.29,0,3.28,4.48,4.91,16.48,8.74,7.21,2.51,16.38,5.57,16.38,14.96s-12.45,18.24-30.14,18.24Zm6.23-20.31c-2.18-.98-6.88-2.51-10.05-3.82-.88-.33-1.86-.44-3.39.77-2.95,1.96-5.13,4.37-5.13,8.08,0,5.9,7.64,9.5,15.51,9.5,6.44,0,11.25-2.51,11.25-6.77,0-3.71-3.61-6.01-8.19-7.75Zm5.02-56.67c-6.45,0-10.7,16.6-10.7,22.06,0,2.3.43,5.24,3.27,5.24,6.33,0,10.7-16.71,10.7-22.16,0-2.3-.55-5.13-3.27-5.13Z"/><path class="cls-1" d="m1390.1,256.28c1.1,1.09,1.32,1.97-.98,4.48-7.2,7.86-16.05,13.32-25.55,13.32s-14.53-5.57-14.53-15.5c0-14.96,12.77-38.22,33.96-38.22,7.1,0,13.1,3.17,13.1,10.16,0,13.11-17.36,19-29.59,19.44-.11.11-.33.44-.65.77-.33,1.86-.55,3.6-.55,4.8,0,4.91,2.3,8.41,7.54,8.41s10.81-3.93,15.29-8.84c.65.22,1.64.77,1.96,1.2Zm-10.81-30.9c-5.56,0-9.71,11.14-12.01,19.11.11.33.11.65.43.77,7.21-.44,14.53-6.66,14.53-15.72,0-2.3-.88-4.15-2.95-4.15Z"/><path class="cls-1" d="m1431.99,255.62c.11.65-.54,1.86-1.31,3.06-4.37,6.12-12.34,15.4-23.15,15.4-5.24,0-8.73-2.62-8.73-7.42,0-2.84,1.2-6.77,2.51-10.92l7.97-25.88c-.11-.44-.33-.77-.44-.88h-6.55c-.44-.22-.55-.76-.55-1.53,0-1.64.44-4.8,1.64-5.13h7.64c.22-.11.44-.44.77-.77l3.82-12.88c1.42-1.97,9.5-2.18,13.21-2.18,1.1,0,2.84.11,3.49.98l-4.26,14.09c.11.33.22.65.43.77h11.36c.43.22.55.76.55,1.53,0,1.75-.44,4.8-1.53,5.13h-12.56c-.21.11-.43.44-.76.77l-8.08,26.43c-.44,1.64-1.31,4.15-1.31,5.57,0,1.09.54,2.18,1.64,2.18,3.49,0,9.39-7.42,11.46-10.59,1.09.33,2.62,1.2,2.73,2.29Z"/><path class="cls-1" d="m1480.92,265.01c-4.48,5.13-10.48,9.06-17.47,9.06-1.74,0-3.82-.65-3.82-3.38,0-1.96.88-5.79,3.28-5.79,1.53,0,2.51.76,4.03.76,2.18,0,3.17-1.85,4.37-5.02,2.51-5.9,4.92-15.29,4.92-22.39,0-2.4-.44-4.7-2.63-4.7s-5.56,3.6-8.51,6.99c-5.68,6.55-8.96,13.65-11.03,21.29l-1.31,5.13c-1.31,4.8-2.18,5.35-8.63,5.35-2.95,0-5.57-.11-8.96-.33l17.69-63.88c1.42-4.91,1.64-6.77-.22-7.53l-2.95-1.09c-.98-.33-.98-.88-.65-1.97.11-.54.33-1.42.55-1.75,3.71-.43,8.08-1.42,12.45-2.51,6.44-1.64,8.4-2.95,11.36-2.95.54,0,.87.22,1.2.33-1.42,3.6-3.94,11.25-5.02,15.07l-9.5,34.4h.11c2.62-3.49,5.9-7.54,9.17-10.81,4.58-4.7,9.61-8.96,15.29-8.96,6.66,0,9.28,5.68,9.28,11.79,0,10.48-5.68,24.79-13,32.87Z"/><path class="cls-1" d="m1536.89,256.28c1.1,1.09,1.32,1.97-.98,4.48-7.2,7.86-16.05,13.32-25.55,13.32s-14.53-5.57-14.53-15.5c0-14.96,12.77-38.22,33.96-38.22,7.1,0,13.1,3.17,13.1,10.16,0,13.11-17.36,19-29.59,19.44-.11.11-.33.44-.65.77-.33,1.86-.55,3.6-.55,4.8,0,4.91,2.3,8.41,7.54,8.41s10.81-3.93,15.29-8.84c.65.22,1.64.77,1.96,1.2Zm-10.81-30.9c-5.56,0-9.71,11.14-12.01,19.11.11.33.11.65.43.77,7.21-.44,14.53-6.66,14.53-15.72,0-2.3-.88-4.15-2.95-4.15Z"/><path class="cls-1" d="m1588.19,236.73c-2.07,0-3.27-1.2-5.79-1.2-3.39,0-5.9,2.84-8.08,6.11-3.6,5.79-6.11,12.56-7.64,17.14l-2.84,8.19c-1.74,4.69-2.07,5.35-9.39,5.35-3.06,0-5.57-.11-9.07-.33l6.23-17.47c2.51-6.77,5.35-16.16,5.35-21.29,0-1.31-.44-2.18-1.53-2.18-2.29,0-5.57,4.81-7.54,7.86-.98-.33-2.51-.88-2.62-2.18-.11-.77.43-1.96,1.2-2.95,4.91-6.23,10.92-13.43,18.35-13.43,3.93,0,6.77,2.4,6.77,7.54s-2.51,12.23-4.48,17.47h.33c1.96-3.6,5.24-9.83,7.42-13.65,4.26-7.43,8.19-11.36,14.63-11.36,3.39,0,4.7,2.07,4.7,5.13,0,3.6-2.18,11.25-6.01,11.25Z"/><path class="cls-3" d="m1319.89,157.53l4.26-.33c.77-.11,1.1.44,1.1,1.42,0,.33-.11.98-.11,1.09-2.07.33-5.56.87-8.19,1.53-2.95.65-5.34,1.75-6.55,1.75-.33,0-.55-.11-.77-.33v-4.91c-.11-.33-.43-.65-.87-.77-4.04,2.95-8.96,5.79-15.4,5.79-12.34,0-20.64-11.36-20.64-23.92,0-14.08,10.05-25.99,24.13-25.99,3.82,0,8.08.43,11.69,2.29.33-.22.65-.54.98-.87v-17.69c0-5.35-.22-6.66-2.07-7.64l-3.06-1.64c-.55-.33-.65-.33-.65-.88,0-.33.11-.98.11-1.09,1.75-.43,4.48-1.2,7.21-2.4,3.17-1.31,5.24-3.06,6.44-3.06.33,0,.55.11.77.33-.11,3.82-.22,7.54-.22,11.14v62.57c0,2.73.55,3.72,1.86,3.6Zm-10.38-30.36c0-7.54-7.1-11.03-12.34-11.03-10.59,0-15.94,8.52-15.94,18.78,0,12.23,6.66,22.93,17.8,22.93,3.39,0,6.66-1.2,9.28-3.6.98-.87,1.2-1.64,1.2-3.06v-24.02Z"/><path class="cls-3" d="m1348.73,163.64c-.76-2.73-2.08-6.77-3.49-10.59l-10.16-26.32c-2.84-7.32-4.26-9.5-6.55-9.94l-1.2-.22c-.44-.11-.65-.44-.65-.98,0-.65.11-1.2.21-1.64,1.75,0,7.54.33,10.16.33s8.85-.33,10.7-.33c.11.43.22.98.22,1.64,0,.54-.22.87-.65.98l-3.28.54c-2.73.66-2.4,1.97.22,9.28l9.06,24.46h.22l7.97-20.09c.98-2.62,2.84-7.21,2.84-9.93,0-2.07-1.09-3.38-3.39-3.93l-1.52-.33c-.44-.11-.65-.44-.65-.98,0-.65.11-1.2.21-1.64,2.51.33,5.9.33,8.52.33,2.29,0,5.46-.22,7.97-.33.11.43.22.98.22,1.64,0,.54-.22.87-.65.98l-1.1.22c-2.07.66-3.38,1.86-6.66,9.94l-10.92,26.32c-1.53,3.6-2.73,7.86-3.49,10.59-.98.55-2.95.55-4.15,0Z"/><path class="cls-3" d="m1415.08,157.64c1.64,0,3.06-1.31,4.15-1.31.77,0,.77.65.77,1.2s-.11,1.09-.11,1.31c-2.5,1.75-6.44,4.26-9.49,4.26-3.82,0-5.47-2.4-6.66-5.46-.11-.11-.44-.11-.77-.11-4.91,4.26-8.63,6.11-13.76,6.11-6.88,0-10.92-4.91-10.92-11.03s3.17-8.52,9.72-11.25c4.7-1.96,10.05-3.71,14.41-5.13.33-.33.44-.55.55-.77v-8.41c0-6.22-4.37-9.06-8.4-9.06-4.37,0-7.64,1.75-7.64,6.01,0,.77.11,1.75.21,2.4-.11.33-.21.54-.43.87-1.42,1.2-4.26,2.51-5.46,2.51-.98,0-1.42-.77-1.42-2.29,0-3.39,1.31-5.35,5.35-8.41,4.7-3.49,9.61-6.22,14.85-6.22,5.79,0,11.46,3.71,11.46,11.68v25.44c0,3.83.22,7.65,3.6,7.65Zm-12.12-18.56c-2.95.98-6.44,2.29-9.39,3.6-4.48,2.07-6.55,3.49-6.55,7.86s2.73,7.43,7.21,7.43c2.51,0,5.68-.99,7.53-2.84.98-.98,1.2-1.86,1.2-3.28v-12.77Z"/><path class="cls-3" d="m1470.04,161.68c-2.73,0-8.85.33-10.7.33-.11-.44-.22-.98-.22-1.64,0-.55.22-.88.65-.98l3.28-.55c2.5-.44,2.5-2.51,2.5-9.17v-19.22c0-3.38-.21-6.55-2.95-9.28-1.96-1.96-4.7-2.95-8.19-2.95-5.56,0-9.28,2.18-11.9,4.26-1.2.88-1.2,1.53-1.2,3.17v24.02c0,6.66,0,8.74,2.51,9.17l3.27.55c.44.11.65.43.65.98,0,.65-.11,1.2-.21,1.64-1.75,0-7.64-.33-10.27-.33s-8.84.33-10.7.33c-.11-.44-.22-.98-.22-1.64,0-.55.22-.88.65-.98l3.27-.55c2.51-.44,2.51-2.51,2.51-9.17v-25c0-2.51-.11-2.95-1.31-3.6l-3.82-2.07c-.55-.33-.65-.33-.65-.87,0-.33.11-.99.11-1.09,1.75-.44,4.15-1.2,6.88-2.4,3.17-1.31,5.25-3.06,6.44-3.06.33,0,.55.11.77.33l-.22,7.32c.11.11.43.22.88.22,5.79-4.37,9.93-7.1,17.47-7.1,4.26,0,8.19,1.31,11.14,4.26,3.72,3.71,3.6,9.5,3.6,13.32v19.76c0,6.66,0,8.74,2.51,9.17l3.27.55c.44.11.66.43.66.98,0,.65-.11,1.2-.22,1.64-1.75,0-7.64-.33-10.26-.33Z"/><path class="cls-3" d="m1526.02,154.25c-4.37,5.79-11.03,9.39-18.45,9.39-13.54,0-22.17-11.9-22.17-23.8,0-15.07,10.48-27.52,25.99-27.52,5.67,0,14.08,1.97,14.08,6.01,0,2.18-1.96,4.8-4.26,4.8-4.03,0-2.4-6.88-13.1-6.88-9.83,0-14.63,8.85-14.63,17.58,0,11.03,7.43,23.26,19.55,23.26,4.69,0,9.28-2.51,11.9-6.33.33,0,.88.33,1.2.55.88.65,1.09,1.31-.11,2.95Z"/><path class="cls-3" d="m1543.53,161.68c-2.73,0-8.85.33-10.7.33-.11-.44-.22-.98-.22-1.64,0-.55.22-.88.65-.98l3.28-.55c2.51-.44,2.51-2.51,2.51-9.17v-25c0-2.51-.11-2.95-1.31-3.6l-3.83-2.07c-.54-.33-.65-.33-.65-.87,0-.33.11-.99.11-1.09,1.74-.44,4.48-1.2,7.2-2.4,3.17-1.31,5.25-3.06,6.45-3.06.33,0,.54.11.76.33-.11,3.82-.22,7.53-.22,11.14v26.64c0,6.66,0,8.74,2.51,9.17l3.28.55c.43.11.65.43.65.98,0,.65-.11,1.2-.22,1.64-1.74,0-7.64-.33-10.26-.33Zm.43-67.16c-3.17,0-5.46-2.29-5.46-5.46s2.18-5.68,5.35-5.68,5.46,2.4,5.46,5.57-2.18,5.57-5.35,5.57Z"/><path class="cls-3" d="m1605.74,161.68c-2.73,0-8.85.33-10.7.33-.11-.44-.21-.98-.21-1.64,0-.55.21-.88.65-.98l3.27-.55c2.51-.44,2.51-2.51,2.51-9.17v-19.22c0-3.38-.22-6.55-2.95-9.28-1.97-1.96-4.7-2.95-8.19-2.95-5.57,0-9.28,2.18-11.91,4.26-1.2.88-1.2,1.53-1.2,3.17v24.02c0,6.66,0,8.74,2.51,9.17l3.27.55c.43.11.65.43.65.98,0,.65-.11,1.2-.22,1.64-1.74,0-7.64-.33-10.26-.33s-8.85.33-10.7.33c-.11-.44-.21-.98-.21-1.64,0-.55.21-.88.65-.98l3.27-.55c2.51-.44,2.51-2.51,2.51-9.17v-25c0-2.51-.11-2.95-1.31-3.6l-3.82-2.07c-.55-.33-.65-.33-.65-.87,0-.33.11-.99.11-1.09,1.74-.44,4.15-1.2,6.88-2.4,3.17-1.31,5.24-3.06,6.44-3.06.33,0,.55.11.76.33l-.21,7.32c.11.11.43.22.87.22,5.79-4.37,9.94-7.1,17.47-7.1,4.26,0,8.19,1.31,11.14,4.26,3.72,3.71,3.61,9.5,3.61,13.32v19.76c0,6.66,0,8.74,2.51,9.17l3.27.55c.43.11.65.43.65.98,0,.65-.11,1.2-.22,1.64-1.74,0-7.64-.33-10.26-.33Z"/><path class="cls-3" d="m1640.53,192.03c-9.5,0-19.22-3.82-19.22-13.76,0-5.25,4.59-9.07,9.83-13.32.11-.33.22-.55.11-.88-4.7-2.29-6.99-5.57-6.99-9.83,0-1.2.11-2.51.54-3.49,3.39-2.29,6.55-4.48,9.61-6.99-5.68-2.95-9.94-8.41-9.94-15.07,0-10.48,9.61-16.38,18.89-16.38,3.39,0,6.44,1.09,9.39,2.73l16.38-.76c.76.33.76.65.76,2.4s0,2.29-.76,2.62l-10.7-.54c-.21.11-.43.33-.54.54,2.29,2.73,4.26,6.01,4.26,10.38,0,10.48-8.85,16.38-18.78,16.38-1.64,0-3.72-.22-5.02-.55-1.64-.33-1.86,0-3.06.88-2.5,1.75-3.17,3.38-3.17,5.24,0,3.93,3.82,5.57,8.31,5.57,5.56,0,9.28-.33,14.84-.33,9.5,0,15.18,4.15,15.18,12.45,0,14.3-14.63,22.71-29.92,22.71Zm12.23-27.19h-15.61c-2.18,0-2.62.11-4.26,1.75-2.29,2.18-4.04,4.91-4.04,8.41,0,8.63,9.5,12.67,17.04,12.67,11.46,0,17.68-6.33,17.68-13.32s-5.02-9.5-10.81-9.5Zm-10.16-49.8c-6.99,0-8.95,7.1-8.95,13.32,0,6.55,3.06,14.96,10.38,14.96s8.95-7.1,8.95-13.32c0-6.55-2.84-14.96-10.38-14.96Z"/><path class="cls-3" d="m1245.55,161.93c-.11-.44-.22-.98-.22-1.64s.22-.98.65-1.09l2.73-.44c2.5-.44,2.94-1.2,2.94-2.51,0-1.53-1.86-6.22-2.94-9.05l-4.48-12c-.21-.33-.43-.55-.76-.65h-24.44c-.33.11-.55.33-.76.65l-4.04,12c-1.2,3.49-3.6,10.69,2.29,11.56l2.73.44c.43.11.65.44.65,1.09s-.11,1.2-.22,1.64c-4.37-.11-7.2-.33-11.02-.33-3.49,0-6.21.22-10.47.33-.11-.44-.21-.98-.21-1.64s.21-.98.65-1.09l2.51-.65c2.94-.87,5.02-2.62,7.96-11.35l17.34-50.4c.55-1.53.87-2.73.87-3.49,0-.33-.11-.76-.21-1.31.54-1.42,2.07-1.64,4.15-3.49,1.74-1.64,2.4-3.05,3.7-3.05.33,0,.55.11.87.22.76,2.94,2.08,6.76,5.35,14.95l18.44,46.58c3.38,8.51,4.8,10.47,8.07,11.35l2.73.65c.55.11.76.44.76,1.09s-.11,1.2-.21,1.64c-4.26-.11-8.51-.33-12.55-.33s-8.62.22-12.87.33Zm-3.82-33.06l-11.24-30.11h-.22l-9.93,30.11c.11.22.33.43.65.65h20.08c.33-.22.54-.44.65-.65Z"/></svg>