<?xml version="1.0" encoding="utf-8"?>
<!-- Generator: Adobe Illustrator 25.4.6, SVG Export Plug-In . SVG Version: 6.00 Build 0)  -->
<svg version="1.1" id="Artboard_1" xmlns="http://www.w3.org/2000/svg" xmlns:xlink="http://www.w3.org/1999/xlink" x="0px" y="0px"
	 viewBox="0 0 239.5 25" style="enable-background:new 0 0 239.5 25;" xml:space="preserve">
<style type="text/css">
	.st0{fill:#003A96;}
	.st1{fill:#009CA6;}
</style>
<g>
	<g>
		<path class="st0" d="M27.2,16.8v0.9h-2.6v2.1h2.3v0.9h-2.3v2.6h-1.1v-6.4H27.2z"/>
		<path class="st0" d="M29.9,23.4c-1.4,0-2.3-0.8-2.3-2.5c0-1.6,0.8-2.5,2.3-2.5c1.4,0,2.3,0.8,2.3,2.5
			C32.2,22.5,31.4,23.4,29.9,23.4z M31,20.9c0-1.1-0.4-1.7-1.1-1.7c-0.8,0-1.1,0.7-1.1,1.7c0,1.1,0.4,1.7,1.1,1.7
			C30.7,22.6,31,21.9,31,20.9z"/>
		<path class="st0" d="M36.5,23.2l-0.2-0.8c-0.1,0.5-0.6,0.9-1.4,0.9c-0.7,0-1.1-0.3-1.3-0.6c-0.3-0.4-0.3-0.9-0.3-1.5v-2.8h1.1v2.8
			c0,0.3,0,0.5,0.2,0.8c0.2,0.2,0.4,0.3,0.8,0.3c0.8,0,0.9-0.7,0.9-1v-2.9h1.1v4.7H36.5z"/>
		<path class="st0" d="M39.6,18.5l0.2,0.8c0.2-0.5,0.6-0.9,1.4-0.9c0.7,0,1.1,0.3,1.4,0.6c0.3,0.4,0.3,0.9,0.3,1.4v2.8h-1.1v-2.8
			c0-0.3,0-0.5-0.2-0.8c-0.2-0.2-0.4-0.3-0.7-0.3c-0.8,0-1,0.7-1,1v2.9h-1.1v-4.7H39.6z"/>
		<path class="st0" d="M48.4,16.6v6.7h-0.9l-0.2-0.8c-0.1,0.5-0.6,0.9-1.4,0.9c-1.3,0-2-1-2-2.4c0-1.5,0.7-2.5,2.1-2.5
			c0.7,0,1.1,0.3,1.3,0.8v-2.7H48.4z M45.1,20.9c0,0.9,0.3,1.6,1.1,1.6s1.1-0.7,1.1-1.6c0-0.9-0.3-1.6-1.1-1.6S45.1,20,45.1,20.9z"
			/>
		<path class="st0" d="M51,17.2c0,0.4-0.3,0.7-0.7,0.7c-0.4,0-0.7-0.3-0.7-0.7c0-0.4,0.3-0.7,0.7-0.7C50.7,16.5,51,16.8,51,17.2z
			 M50.9,18.5v0.8v4h-1.1v-4.7H50.9z"/>
		<path class="st0" d="M53.1,18.5l0.2,0.8c0.2-0.5,0.6-0.9,1.4-0.9c0.7,0,1.1,0.3,1.4,0.6c0.3,0.4,0.3,0.9,0.3,1.4v2.8h-1.1v-2.8
			c0-0.3,0-0.5-0.2-0.8c-0.2-0.2-0.4-0.3-0.7-0.3c-0.8,0-1,0.7-1,1v2.9h-1.1v-4.7H53.1z"/>
		<path class="st0" d="M59.5,21.5c-0.2,0-0.4,0-0.6-0.1c-0.1,0.1-0.2,0.2-0.2,0.4c0,0.4,0.4,0.4,0.6,0.4H60c0.6,0,1.9,0,1.9,1.3
			c0,1-0.8,1.6-2.5,1.6c-1.5,0-2.2-0.4-2.2-1.1c0-0.8,0.9-0.9,0.9-0.9c0,0-0.6-0.2-0.6-0.8c0-0.6,0.6-0.8,0.9-0.9
			c-0.5-0.3-0.8-0.7-0.8-1.3c0-0.9,0.8-1.5,1.9-1.5c0.6,0,1.1,0.1,1.4,0.4c0.2-0.6,0.7-0.6,1-0.6H62v0.9c0,0-0.2,0-0.4,0
			c-0.2,0-0.3,0-0.4,0.1c0.1,0.2,0.2,0.5,0.2,0.8C61.4,20.9,60.7,21.5,59.5,21.5z M58.5,23.1c0,0-0.3,0.2-0.3,0.6
			c0,0.4,0.4,0.6,1.2,0.6c0.9,0,1.4-0.2,1.4-0.7c0-0.5-0.6-0.5-0.9-0.5H58.5z M60.3,19.9c0-0.5-0.3-0.7-0.8-0.7
			c-0.5,0-0.8,0.3-0.8,0.7c0,0.5,0.3,0.7,0.8,0.7C60,20.7,60.3,20.4,60.3,19.9z"/>
		<path class="st0" d="M66.8,16.8l2.1,4.9l2-4.9h1.4v6.4h-1.1v-5l-1.9,4.7h-1l-1.9-4.7v5h-1v-6.4H66.8z"/>
		<path class="st0" d="M77.3,23.1c0,0-0.6,0.2-1.5,0.2c-0.9,0-1.4-0.2-1.8-0.6c-0.4-0.4-0.6-1-0.6-1.8c0-1.5,0.8-2.5,2.2-2.5
			c0.8,0,1.4,0.3,1.7,0.8c0.3,0.5,0.3,1.2,0.3,2h-3c0,0.8,0.5,1.3,1.4,1.3c0.7,0,1.3-0.3,1.3-0.3h0.1V23.1z M76.5,20.4
			c0-0.8-0.2-1.2-0.9-1.2c-0.7,0-0.9,0.5-1,1.2H76.5z"/>
		<path class="st0" d="M79.6,18.5l0.2,0.8c0.1-0.5,0.5-0.9,1.4-0.9c0.8,0,1.2,0.4,1.4,0.9c0.2-0.6,0.7-0.9,1.4-0.9
			c0.7,0,1.1,0.3,1.3,0.6c0.3,0.4,0.3,0.9,0.3,1.4v2.8h-1.1v-2.8c0-0.3,0-0.5-0.1-0.8c-0.1-0.2-0.3-0.3-0.7-0.3
			c-0.8,0-0.9,0.7-0.9,1v2.9h-1.1v-2.8c0-0.3,0-0.5-0.1-0.8c-0.1-0.2-0.3-0.3-0.7-0.3c-0.8,0-0.9,0.7-0.9,1v2.9h-1.1v-4.7H79.6z"/>
		<path class="st0" d="M88,16.6v2.8c0.2-0.5,0.6-0.9,1.4-0.9c1.2,0,2,0.9,2,2.4c0,1.6-0.8,2.5-2.1,2.5c-0.7,0-1.2-0.3-1.4-0.8
			l-0.3,0.7h-0.7v-6.7H88z M88,20.9c0,0.9,0.3,1.6,1.1,1.6c0.8,0,1.1-0.7,1.1-1.6c0-0.9-0.3-1.6-1.1-1.6C88.3,19.3,88,20,88,20.9z"
			/>
		<path class="st0" d="M96.1,23.1c0,0-0.6,0.2-1.5,0.2c-0.9,0-1.4-0.2-1.8-0.6c-0.4-0.4-0.6-1-0.6-1.8c0-1.5,0.8-2.5,2.2-2.5
			c0.8,0,1.4,0.3,1.7,0.8c0.3,0.5,0.3,1.2,0.3,2h-3c0,0.8,0.5,1.3,1.4,1.3c0.7,0,1.3-0.3,1.3-0.3h0.1V23.1z M95.2,20.4
			c0-0.8-0.2-1.2-0.9-1.2c-0.7,0-0.9,0.5-1,1.2H95.2z"/>
		<path class="st0" d="M100.2,19.5c0,0-0.2-0.1-0.5-0.1c-1,0-1,0.7-1,1.1v2.6h-1.1v-4.7h0.9l0.2,0.9c0.2-0.8,0.8-1,1.4-1h0.1V19.5z"
			/>
		<path class="st0" d="M101.4,22.1l-0.7,2.4h-0.8l0.4-2.4H101.4z"/>
		<path class="st0" d="M106.4,16.8l2.1,4.9l2-4.9h1.4v6.4h-1.1v-5l-1.9,4.7h-1l-1.9-4.7v5h-1v-6.4H106.4z"/>
		<path class="st0" d="M113.5,18.7c0,0,0.6-0.2,1.5-0.2c0.7,0,1.3,0.1,1.7,0.6c0.3,0.4,0.3,0.8,0.3,1.3v1.6c0,0.2,0,0.5,0.4,0.5
			c0.1,0,0.2,0,0.2,0v0.8c0,0-0.3,0.1-0.6,0.1c-0.6,0-1-0.2-1-0.8c-0.2,0.5-0.7,0.9-1.4,0.9c-0.9,0-1.5-0.6-1.5-1.4
			c0-1,0.8-1.5,2.3-1.5c0.3,0,0.4,0,0.4,0c0-0.4,0-0.6-0.1-0.8c-0.1-0.2-0.4-0.3-0.8-0.3c-0.7,0-1.3,0.2-1.3,0.2h-0.1V18.7z
			 M114.8,22.5c0.3,0,0.6-0.2,0.8-0.4c0.2-0.3,0.2-0.6,0.2-0.8v-0.1h-0.3c-0.5,0-1.4,0-1.4,0.7C114.2,22.2,114.4,22.5,114.8,22.5z"
			/>
		<path class="st0" d="M121.3,19.5L121.3,19.5c-0.1,0-0.7-0.2-1.2-0.2c-0.5,0-0.7,0.2-0.7,0.4c0,0.7,2.1,0.5,2.1,2.1
			c0,1-0.8,1.4-1.9,1.4c-0.8,0-1.3-0.2-1.3-0.2v-0.9h0.1c0,0,0.7,0.3,1.3,0.3c0.5,0,0.7-0.2,0.7-0.5c0-0.8-2.1-0.6-2.1-2.1
			c0-0.9,0.7-1.4,1.9-1.4c0.7,0,1.2,0.2,1.2,0.2V19.5z"/>
		<path class="st0" d="M125.3,19.5L125.3,19.5c-0.1,0-0.7-0.2-1.2-0.2c-0.5,0-0.7,0.2-0.7,0.4c0,0.7,2.1,0.5,2.1,2.1
			c0,1-0.8,1.4-1.9,1.4c-0.8,0-1.3-0.2-1.3-0.2v-0.9h0.1c0,0,0.7,0.3,1.3,0.3c0.5,0,0.7-0.2,0.7-0.5c0-0.8-2.1-0.6-2.1-2.1
			c0-0.9,0.7-1.4,1.9-1.4c0.7,0,1.2,0.2,1.2,0.2V19.5z"/>
		<path class="st0" d="M134,19.8V23c0,0-0.8,0.3-2,0.3c-2,0-3.3-1-3.3-3.3c0-2.3,1.4-3.3,3.5-3.3c0.9,0,1.6,0.2,1.6,0.2v0.9h-0.1
			c0,0-0.7-0.3-1.5-0.3c-1.4,0-2.3,0.8-2.3,2.4s0.9,2.5,2.1,2.5c0.5,0,0.8-0.1,0.8-0.1v-1.7h-1.1v-0.9H134z"/>
		<path class="st0" d="M138.9,23.1c0,0-0.6,0.2-1.5,0.2c-0.9,0-1.4-0.2-1.8-0.6c-0.4-0.4-0.6-1-0.6-1.8c0-1.5,0.8-2.5,2.2-2.5
			c0.8,0,1.4,0.3,1.7,0.8c0.3,0.5,0.3,1.2,0.3,2h-3c0,0.8,0.5,1.3,1.4,1.3c0.7,0,1.3-0.3,1.3-0.3h0.1V23.1z M138,20.4
			c0-0.8-0.2-1.2-0.9-1.2c-0.7,0-0.9,0.5-1,1.2H138z"/>
		<path class="st0" d="M141.2,18.5l0.2,0.8c0.2-0.5,0.6-0.9,1.4-0.9c0.7,0,1.1,0.3,1.4,0.6c0.3,0.4,0.3,0.9,0.3,1.4v2.8h-1.1v-2.8
			c0-0.3,0-0.5-0.2-0.8c-0.2-0.2-0.4-0.3-0.7-0.3c-0.8,0-1,0.7-1,1v2.9h-1.1v-4.7H141.2z"/>
		<path class="st0" d="M149.4,23.1c0,0-0.6,0.2-1.5,0.2c-0.9,0-1.4-0.2-1.8-0.6c-0.4-0.4-0.6-1-0.6-1.8c0-1.5,0.8-2.5,2.2-2.5
			c0.8,0,1.4,0.3,1.7,0.8c0.3,0.5,0.3,1.2,0.3,2h-3c0,0.8,0.5,1.3,1.4,1.3c0.7,0,1.3-0.3,1.3-0.3h0.1V23.1z M148.5,20.4
			c0-0.8-0.2-1.2-0.9-1.2c-0.7,0-0.9,0.5-1,1.2H148.5z"/>
		<path class="st0" d="M153.4,19.5c0,0-0.2-0.1-0.5-0.1c-1,0-1,0.7-1,1.1v2.6h-1.1v-4.7h0.9l0.2,0.9c0.2-0.8,0.8-1,1.4-1h0.1V19.5z"
			/>
		<path class="st0" d="M154.3,18.7c0,0,0.6-0.2,1.5-0.2c0.7,0,1.3,0.1,1.7,0.6c0.3,0.4,0.3,0.8,0.3,1.3v1.6c0,0.2,0,0.5,0.4,0.5
			c0.1,0,0.2,0,0.2,0v0.8c0,0-0.3,0.1-0.6,0.1c-0.6,0-1-0.2-1-0.8c-0.2,0.5-0.7,0.9-1.4,0.9c-0.9,0-1.5-0.6-1.5-1.4
			c0-1,0.8-1.5,2.3-1.5c0.3,0,0.4,0,0.4,0c0-0.4,0-0.6-0.1-0.8c-0.1-0.2-0.4-0.3-0.8-0.3c-0.7,0-1.3,0.2-1.3,0.2h-0.1V18.7z
			 M155.6,22.5c0.3,0,0.6-0.2,0.8-0.4c0.2-0.3,0.2-0.6,0.2-0.8v-0.1h-0.3c-0.5,0-1.4,0-1.4,0.7C155,22.2,155.2,22.5,155.6,22.5z"/>
		<path class="st0" d="M160.3,16.6v1.9v4.8h-1.1v-6.7H160.3z"/>
		<path class="st0" d="M166.2,16.8c0.5,0,1,0,1.5,0.3c0.4,0.2,0.7,0.6,0.7,1.3c0,1.3-1.1,1.4-1.1,1.4s1.5,0.1,1.5,1.6
			c0,0.7-0.3,1.2-0.8,1.5c-0.6,0.4-1.2,0.4-1.7,0.4h-2.1v-6.4H166.2z M165.2,19.5h0.8c0.3,0,0.5,0,0.8-0.1c0.2-0.1,0.4-0.4,0.4-0.8
			c0-0.4-0.2-0.7-0.4-0.8c-0.2-0.1-0.5-0.1-0.8-0.1h-0.8V19.5z M165.2,22.4h0.9c0.3,0,0.6,0,1-0.2c0.3-0.2,0.5-0.4,0.5-0.9
			c0-0.4-0.2-0.7-0.5-0.9c-0.3-0.2-0.7-0.2-1-0.2h-0.9V22.4z"/>
		<path class="st0" d="M172.4,19.5c0,0-0.2-0.1-0.5-0.1c-1,0-1,0.7-1,1.1v2.6h-1.1v-4.7h0.9l0.2,0.9c0.2-0.8,0.8-1,1.4-1h0.1V19.5z"
			/>
		<path class="st0" d="M174.5,17.2c0,0.4-0.3,0.7-0.7,0.7c-0.4,0-0.7-0.3-0.7-0.7c0-0.4,0.3-0.7,0.7-0.7
			C174.2,16.5,174.5,16.8,174.5,17.2z M174.4,18.5v0.7v4h-1.1v-4.7H174.4z"/>
		<path class="st0" d="M177.6,21.5c-0.2,0-0.4,0-0.6-0.1c-0.1,0.1-0.2,0.2-0.2,0.4c0,0.4,0.4,0.4,0.6,0.4h0.8c0.6,0,1.9,0,1.9,1.3
			c0,1-0.8,1.6-2.5,1.6c-1.5,0-2.2-0.4-2.2-1.1c0-0.8,0.9-0.9,0.9-0.9c0,0-0.6-0.2-0.6-0.8c0-0.6,0.6-0.8,0.9-0.9
			c-0.5-0.3-0.8-0.7-0.8-1.3c0-0.9,0.8-1.5,1.9-1.5c0.6,0,1.1,0.1,1.4,0.4c0.2-0.6,0.7-0.6,1-0.6h0.1v0.9c0,0-0.2,0-0.4,0
			c-0.2,0-0.3,0-0.4,0.1c0.1,0.2,0.2,0.5,0.2,0.8C179.5,20.9,178.8,21.5,177.6,21.5z M176.6,23.1c0,0-0.3,0.2-0.3,0.6
			c0,0.4,0.4,0.6,1.2,0.6c0.9,0,1.4-0.2,1.4-0.7c0-0.5-0.6-0.5-0.9-0.5H176.6z M178.4,19.9c0-0.5-0.3-0.7-0.8-0.7
			c-0.5,0-0.8,0.3-0.8,0.7c0,0.5,0.3,0.7,0.8,0.7C178.1,20.7,178.4,20.4,178.4,19.9z"/>
		<path class="st0" d="M182.1,16.6v2.7c0.2-0.5,0.5-0.8,1.3-0.8c0.7,0,1.1,0.3,1.4,0.6c0.3,0.4,0.3,0.9,0.3,1.4v2.8H184v-2.8
			c0-0.3,0-0.5-0.2-0.8c-0.2-0.2-0.4-0.3-0.7-0.3c-0.8,0-1,0.7-1,1v2.9H181v-6.7H182.1z"/>
		<path class="st0" d="M186.5,18.7c0,0,0.6-0.2,1.5-0.2c0.7,0,1.3,0.1,1.7,0.6c0.3,0.4,0.3,0.8,0.3,1.3v1.6c0,0.2,0,0.5,0.4,0.5
			c0.1,0,0.2,0,0.2,0v0.8c0,0-0.3,0.1-0.6,0.1c-0.6,0-1-0.2-1-0.8c-0.2,0.5-0.7,0.9-1.4,0.9c-0.9,0-1.5-0.6-1.5-1.4
			c0-1,0.8-1.5,2.3-1.5c0.3,0,0.4,0,0.4,0c0-0.4,0-0.6-0.1-0.8c-0.1-0.2-0.4-0.3-0.8-0.3c-0.7,0-1.3,0.2-1.3,0.2h-0.1V18.7z
			 M187.9,22.5c0.3,0,0.6-0.2,0.8-0.4c0.2-0.3,0.2-0.6,0.2-0.8v-0.1h-0.3c-0.5,0-1.4,0-1.4,0.7C187.2,22.2,187.4,22.5,187.9,22.5z"
			/>
		<path class="st0" d="M192.4,18.5l0.2,0.8c0.1-0.5,0.5-0.9,1.4-0.9c0.8,0,1.2,0.4,1.4,0.9c0.2-0.6,0.7-0.9,1.4-0.9
			c0.7,0,1.1,0.3,1.3,0.6c0.3,0.4,0.3,0.9,0.3,1.4v2.8h-1.1v-2.8c0-0.3,0-0.5-0.1-0.8c-0.1-0.2-0.3-0.3-0.7-0.3
			c-0.8,0-0.9,0.7-0.9,1v2.9h-1.1v-2.8c0-0.3,0-0.5-0.1-0.8c-0.1-0.2-0.3-0.3-0.7-0.3c-0.8,0-0.9,0.7-0.9,1v2.9h-1.1v-4.7H192.4z"/>
	</g>
	<g>
		<path class="st0" d="M25.8,0.7l3.4,8.2l3.3-8.2H35v10.7h-1.9V3.1l-3.2,7.8h-1.7l-3.2-7.8v8.4h-1.7V0.7H25.8z"/>
		<path class="st0" d="M37.1,3.8c0,0,1-0.3,2.5-0.3c1.2,0,2.2,0.2,2.8,1c0.4,0.6,0.4,1.4,0.4,2.1v2.7c0,0.3,0,0.9,0.7,0.9
			c0.2,0,0.4-0.1,0.4-0.1v1.3c0,0-0.4,0.1-1,0.1c-1,0-1.6-0.3-1.7-1.4c-0.3,0.9-1.2,1.4-2.3,1.4c-1.5,0-2.5-0.9-2.5-2.4
			c0-1.7,1.4-2.5,3.9-2.5c0.5,0,0.7,0,0.7,0c0-0.7,0-1-0.2-1.3c-0.2-0.3-0.6-0.5-1.4-0.5c-1.1,0-2.1,0.4-2.1,0.4h-0.1V3.8z
			 M39.4,10.2c0.6,0,1.1-0.3,1.3-0.7C41,8.9,41,8.4,41,8V7.9h-0.4c-0.8,0-2.3,0-2.3,1.2C38.3,9.7,38.7,10.2,39.4,10.2z"/>
		<path class="st0" d="M50,5.3h-0.1c0,0-1-0.4-1.9-0.4c-0.8,0-1.2,0.3-1.2,0.7c0,1.2,3.5,0.9,3.5,3.6c0,1.7-1.3,2.4-3.2,2.4
			c-1.4,0-2.2-0.4-2.2-0.4V9.7H45c0,0,1.2,0.5,2.2,0.5c0.9,0,1.2-0.3,1.2-0.8c0-1.4-3.5-1-3.5-3.6c0-1.4,1.1-2.3,3.1-2.3
			c1.1,0,2,0.3,2,0.3V5.3z"/>
		<path class="st0" d="M56.6,5.3h-0.1c0,0-1-0.4-1.9-0.4c-0.8,0-1.2,0.3-1.2,0.7c0,1.2,3.5,0.9,3.5,3.6c0,1.7-1.3,2.4-3.2,2.4
			c-1.4,0-2.2-0.4-2.2-0.4V9.7h0.1c0,0,1.2,0.5,2.2,0.5c0.9,0,1.2-0.3,1.2-0.8c0-1.4-3.5-1-3.5-3.6c0-1.4,1.1-2.3,3.1-2.3
			c1.1,0,2,0.3,2,0.3V5.3z"/>
		<path class="st0" d="M58.6,3.8c0,0,1-0.3,2.5-0.3c1.2,0,2.2,0.2,2.8,1c0.4,0.6,0.4,1.4,0.4,2.1v2.7c0,0.3,0,0.9,0.7,0.9
			c0.2,0,0.4-0.1,0.4-0.1v1.3c0,0-0.4,0.1-1,0.1c-1,0-1.6-0.3-1.7-1.4c-0.3,0.9-1.2,1.4-2.3,1.4c-1.5,0-2.5-0.9-2.5-2.4
			c0-1.7,1.4-2.5,3.9-2.5c0.5,0,0.7,0,0.7,0c0-0.7,0-1-0.2-1.3c-0.2-0.3-0.6-0.5-1.4-0.5c-1.1,0-2.1,0.4-2.1,0.4h-0.1V3.8z
			 M60.9,10.2c0.6,0,1.1-0.3,1.3-0.7c0.3-0.5,0.3-1.1,0.3-1.4V7.9h-0.4c-0.8,0-2.3,0-2.3,1.2C59.8,9.7,60.2,10.2,60.9,10.2z"/>
		<path class="st0" d="M71.8,11.3c0,0-0.7,0.2-1.7,0.2c-2.6,0-4-1.5-4-4s1.3-4.1,3.9-4.1c1,0,1.7,0.2,1.7,0.2v1.5h-0.1
			c0,0-0.7-0.3-1.5-0.3c-1.4,0-2.1,1-2.1,2.6s0.7,2.6,2.1,2.6c0.8,0,1.5-0.3,1.5-0.3h0.1V11.3z"/>
		<path class="st0" d="M75.1,0.3v4.5C75.4,4,76,3.4,77.4,3.4c1.2,0,1.9,0.5,2.3,1c0.5,0.7,0.5,1.4,0.5,2.4v4.6h-1.9V6.8
			c0-0.5,0-0.9-0.3-1.3c-0.3-0.4-0.6-0.6-1.2-0.6c-1.4,0-1.6,1.1-1.6,1.7v4.8h-1.9V0.3H75.1z"/>
		<path class="st0" d="M87.3,11.4l-0.3-1.3c-0.2,0.9-1,1.5-2.3,1.5c-1.1,0-1.8-0.4-2.2-1C82,10,82,9.2,82,8.2V3.6h1.9v4.6
			c0,0.5,0,0.9,0.3,1.3c0.3,0.4,0.7,0.6,1.3,0.6c1.3,0,1.4-1.1,1.4-1.7V3.6h1.9v7.8H87.3z"/>
		<path class="st0" d="M95.4,5.3h-0.1c0,0-1-0.4-1.9-0.4c-0.8,0-1.2,0.3-1.2,0.7c0,1.2,3.5,0.9,3.5,3.6c0,1.7-1.3,2.4-3.2,2.4
			c-1.4,0-2.2-0.4-2.2-0.4V9.7h0.1c0,0,1.2,0.5,2.2,0.5c0.9,0,1.2-0.3,1.2-0.8c0-1.4-3.5-1-3.5-3.6c0-1.4,1.1-2.3,3.1-2.3
			c1.1,0,2,0.3,2,0.3V5.3z"/>
		<path class="st0" d="M103.4,11.2c0,0-1.1,0.3-2.5,0.3c-1.5,0-2.4-0.4-3-1c-0.7-0.7-1.1-1.7-1.1-3c0-2.6,1.3-4.2,3.7-4.2
			c1.3,0,2.3,0.5,2.8,1.4c0.5,0.9,0.5,2.1,0.5,3.3h-5.1c0,1.3,0.8,2.1,2.3,2.1c1.1,0,2.2-0.4,2.2-0.4h0.1V11.2z M101.9,6.8
			c0-1.3-0.4-2.1-1.5-2.1c-1.1,0-1.5,0.8-1.7,2.1H101.9z"/>
		<path class="st0" d="M109.9,11.4c0,0-0.6,0.2-1.4,0.2c-1.1,0-1.9-0.3-2.3-0.9c-0.3-0.5-0.3-1.2-0.3-2V5.1h-1.4V3.7h1.4v-2l1.9-0.5
			v2.6h2.2v1.4h-2.2v3.5c0,0.5,0,0.9,0.2,1.2c0.2,0.3,0.5,0.4,0.8,0.4c0.6,0,1-0.2,1-0.2h0.1V11.4z"/>
		<path class="st0" d="M116.1,11.4c0,0-0.6,0.2-1.4,0.2c-1.1,0-1.9-0.3-2.3-0.9c-0.3-0.5-0.3-1.2-0.3-2V5.1h-1.4V3.7h1.4v-2l1.9-0.5
			v2.6h2.2v1.4h-2.2v3.5c0,0.5,0,0.9,0.2,1.2c0.2,0.3,0.5,0.4,0.8,0.4c0.6,0,1-0.2,1-0.2h0.1V11.4z"/>
		<path class="st0" d="M122.4,5.3h-0.1c0,0-1-0.4-1.9-0.4c-0.8,0-1.2,0.3-1.2,0.7c0,1.2,3.5,0.9,3.5,3.6c0,1.7-1.3,2.4-3.2,2.4
			c-1.4,0-2.2-0.4-2.2-0.4V9.7h0.1c0,0,1.2,0.5,2.2,0.5c0.9,0,1.2-0.3,1.2-0.8c0-1.4-3.5-1-3.5-3.6c0-1.4,1.1-2.3,3.1-2.3
			c1.1,0,2,0.3,2,0.3V5.3z"/>
		<path class="st0" d="M136.3,5.8V11c0,0-1.4,0.6-3.3,0.6c-3.3,0-5.6-1.7-5.6-5.4c0-3.8,2.4-5.6,5.8-5.6c1.6,0,2.7,0.4,2.7,0.4v1.5
			h-0.1c0,0-1.1-0.5-2.5-0.5c-2.4,0-3.8,1.3-3.8,4c0,2.8,1.5,4.1,3.5,4.1c0.8,0,1.4-0.2,1.4-0.2V7.2h-1.9V5.8H136.3z"/>
		<path class="st0" d="M144.3,11.2c0,0-1.1,0.3-2.5,0.3c-1.5,0-2.4-0.4-3-1c-0.7-0.7-1.1-1.7-1.1-3c0-2.6,1.3-4.2,3.7-4.2
			c1.3,0,2.3,0.5,2.8,1.4c0.5,0.9,0.5,2.1,0.5,3.3h-5.1c0,1.3,0.8,2.1,2.3,2.1c1.1,0,2.2-0.4,2.2-0.4h0.1V11.2z M142.9,6.8
			c0-1.3-0.4-2.1-1.5-2.1c-1.1,0-1.5,0.8-1.7,2.1H142.9z"/>
		<path class="st0" d="M147.8,3.6l0.3,1.3c0.3-0.9,1-1.5,2.3-1.5c1.2,0,1.9,0.5,2.3,1c0.5,0.7,0.5,1.4,0.5,2.4v4.6h-1.9V6.8
			c0-0.5,0-0.9-0.3-1.3c-0.3-0.4-0.6-0.6-1.2-0.6c-1.4,0-1.6,1.1-1.6,1.7v4.8h-1.9V3.6H147.8z"/>
		<path class="st0" d="M161.2,11.2c0,0-1.1,0.3-2.5,0.3c-1.5,0-2.4-0.4-3-1c-0.7-0.7-1.1-1.7-1.1-3c0-2.6,1.3-4.2,3.7-4.2
			c1.3,0,2.3,0.5,2.8,1.4s0.5,2.1,0.5,3.3h-5.1c0,1.3,0.8,2.1,2.3,2.1c1.1,0,2.2-0.4,2.2-0.4h0.1V11.2z M159.7,6.8
			c0-1.3-0.4-2.1-1.5-2.1c-1.1,0-1.5,0.8-1.7,2.1H159.7z"/>
		<path class="st0" d="M167.6,5.3c0,0-0.4-0.1-0.8-0.1c-1.7,0-1.7,1.2-1.7,1.9v4.4h-1.9V3.6h1.4l0.4,1.5c0.3-1.3,1.3-1.6,2.4-1.6
			h0.2V5.3z"/>
		<path class="st0" d="M168.9,3.8c0,0,1-0.3,2.5-0.3c1.2,0,2.2,0.2,2.8,1c0.4,0.6,0.4,1.4,0.4,2.1v2.7c0,0.3,0,0.9,0.7,0.9
			c0.2,0,0.4-0.1,0.4-0.1v1.3c0,0-0.4,0.1-1,0.1c-1,0-1.6-0.3-1.7-1.4c-0.3,0.9-1.2,1.4-2.3,1.4c-1.5,0-2.5-0.9-2.5-2.4
			c0-1.7,1.4-2.5,3.9-2.5c0.5,0,0.7,0,0.7,0c0-0.7,0-1-0.2-1.3c-0.2-0.3-0.6-0.5-1.4-0.5c-1.1,0-2.1,0.4-2.1,0.4h-0.1V3.8z
			 M171.1,10.2c0.6,0,1.1-0.3,1.3-0.7c0.3-0.5,0.3-1.1,0.3-1.4V7.9h-0.4c-0.8,0-2.3,0-2.3,1.2C170,9.7,170.4,10.2,171.1,10.2z"/>
		<path class="st0" d="M178.7,0.3v3.2v7.9h-1.9V0.3H178.7z"/>
		<path class="st0" d="M186.3,0.7v4.4h4.7V0.7h1.9v10.7h-1.9V6.6h-4.7v4.8h-1.9V0.7H186.3z"/>
		<path class="st0" d="M198.5,11.6c-2.4,0-3.8-1.4-3.8-4.1c0-2.7,1.4-4.1,3.9-4.1c2.4,0,3.8,1.4,3.8,4.1
			C202.3,10.2,200.9,11.6,198.5,11.6z M200.3,7.5c0-1.8-0.6-2.8-1.8-2.8c-1.3,0-1.8,1.1-1.8,2.8c0,1.8,0.6,2.8,1.8,2.8
			C199.8,10.3,200.3,9.2,200.3,7.5z"/>
		<path class="st0" d="M208.5,5.3h-0.1c0,0-1-0.4-1.9-0.4c-0.8,0-1.2,0.3-1.2,0.7c0,1.2,3.5,0.9,3.5,3.6c0,1.7-1.3,2.4-3.2,2.4
			c-1.4,0-2.2-0.4-2.2-0.4V9.7h0.1c0,0,1.2,0.5,2.2,0.5c0.9,0,1.2-0.3,1.2-0.8c0-1.4-3.5-1-3.5-3.6c0-1.4,1.1-2.3,3.1-2.3
			c1.1,0,2,0.3,2,0.3V5.3z"/>
		<path class="st0" d="M210.4,14.2V3.6h1.5l0.4,1.3c0.2-0.9,1.1-1.5,2.4-1.5c2.2,0,3.3,1.7,3.3,4.1c0,2.4-1.2,4.1-3.5,4.1
			c-1.1,0-1.9-0.4-2.2-1.3v4H210.4z M215.9,7.5c0-1.6-0.5-2.7-1.8-2.7c-1.3,0-1.8,1.1-1.8,2.7c0,1.6,0.5,2.7,1.8,2.7
			C215.4,10.2,215.9,9.1,215.9,7.5z"/>
		<path class="st0" d="M221.5,1.4c0,0.6-0.5,1.1-1.1,1.1c-0.7,0-1.1-0.5-1.1-1.1c0-0.6,0.5-1.1,1.1-1.1
			C221.1,0.3,221.5,0.7,221.5,1.4z M221.3,3.6v7.8h-1.9V4.9V3.6H221.3z"/>
		<path class="st0" d="M228,11.4c0,0-0.6,0.2-1.4,0.2c-1.1,0-1.9-0.3-2.3-0.9c-0.3-0.5-0.3-1.2-0.3-2V5.1h-1.4V3.7h1.4v-2l1.9-0.5
			v2.6h2.2v1.4h-2.2v3.5c0,0.5,0,0.9,0.2,1.2c0.2,0.3,0.5,0.4,0.8,0.4c0.6,0,1-0.2,1-0.2h0.1V11.4z"/>
		<path class="st0" d="M229.7,3.8c0,0,1-0.3,2.5-0.3c1.2,0,2.2,0.2,2.8,1c0.4,0.6,0.4,1.4,0.4,2.1v2.7c0,0.3,0,0.9,0.7,0.9
			c0.2,0,0.4-0.1,0.4-0.1v1.3c0,0-0.4,0.1-1,0.1c-1,0-1.6-0.3-1.7-1.4c-0.3,0.9-1.2,1.4-2.3,1.4c-1.5,0-2.5-0.9-2.5-2.4
			c0-1.7,1.4-2.5,3.9-2.5c0.5,0,0.7,0,0.7,0c0-0.7,0-1-0.2-1.3c-0.2-0.3-0.6-0.5-1.4-0.5c-1.1,0-2.1,0.4-2.1,0.4h-0.1V3.8z
			 M232,10.2c0.6,0,1.1-0.3,1.3-0.7c0.3-0.5,0.3-1.1,0.3-1.4V7.9h-0.4c-0.8,0-2.3,0-2.3,1.2C230.9,9.7,231.2,10.2,232,10.2z"/>
		<path class="st0" d="M239.5,0.3v3.2v8h-1.9V0.3H239.5z"/>
	</g>
	<g>
		<polygon class="st1" points="2.5,9 0.3,9 0.3,12.8 0.3,16.3 2.5,16.3 		"/>
		<polygon class="st1" points="5.1,9 5.1,12.8 5.1,16.3 7.3,16.3 7.3,9 		"/>
		<polygon class="st1" points="9.9,9 9.9,12.8 9.9,16.3 12.2,16.3 12.2,9 		"/>
		<polygon class="st1" points="0.3,7.7 8.6,7.7 17,7.7 17,5.6 0.3,5.6 		"/>
		<polygon class="st1" points="8.6,0 0.3,2.8 0.3,4.9 8.6,2.1 17,4.9 17,2.8 		"/>
		<path class="st1" d="M17,16.1c0,0.1-0.9,1.5-6.2,1.5l-4.3,0c-5.5,0-6.1,0.8-6.2,0.8v2.1c0.1-0.1,0.7-0.8,6.2-0.8l4.3,0
			c5.3,0,6.2-1.4,6.2-1.5V16.1z"/>
		<path class="st1" d="M17,19.6c0,0.1-0.9,1.5-6.2,1.5l-4.3,0c-5.5,0-6.1,0.8-6.2,0.8v2.1C0.4,24,1,23.3,6.5,23.2l4.3,0
			c5.3,0,6.2-1.4,6.2-1.5V19.6z"/>
		<path class="st1" d="M14.8,9v6.9c1.8-0.4,2.2-1.1,2.2-1.2V9H14.8z"/>
	</g>
</g>
</svg>
